<svg width="48" height="48" viewBox="0 0 48 48" xmlns="http://www.w3.org/2000/svg">
  <defs>
    <linearGradient x1="50%" y1="0%" x2="50%" y2="100%" id="a">
      <stop stop-opacity="0" offset="0%"/>
      <stop offset="49.8447963%"/>
      <stop stop-opacity="0" offset="100%"/>
    </linearGradient>
    <radialGradient cx="0%" fx="0%" fy="50%" r="63.6829723%" id="b">
      <stop offset="0%"/>
      <stop stop-opacity="0" offset="100%"/>
    </radialGradient>
    <linearGradient x1="50%" y1="0%" x2="50%" y2="85.0368565%" id="c">
      <stop stop-color="#FFF" offset="0%"/>
      <stop stop-color="#F9F9F9" offset="100%"/>
    </linearGradient>
    <linearGradient x1="50%" y1="0%" x2="50%" y2="87.2130102%" id="d">
      <stop stop-color="#FFD787" offset="0%"/>
      <stop stop-color="#FFBF3F" offset="100%"/>
    </linearGradient>
    <linearGradient x1="50%" y1="2.37479907%" x2="50%" y2="98.5590721%" id="e">
      <stop stop-color="#FFF" stop-opacity=".4" offset="0%"/>
      <stop stop-color="#FFF" stop-opacity="0" offset="100%"/>
    </linearGradient>
  </defs>
  <g fill="none" fill-rule="evenodd">
    <path fill-opacity=".25" fill="url(#a)" d="M11 40h26v7H11z"/>
    <path fill-opacity=".25" fill="url(#b)" d="M37 40h11v7H37z"/>
    <path fill-opacity=".25" fill="url(#b)" transform="rotate(-180 5.5 43.5)" d="M0 40h11v7H0"/>
    <path d="M38 44.5H10c-2.5 0-3.5-1-3.5-3.5v-8h35v8c0 2.5-1 3.5-3.5 3.5z" fill="#F9F9F9"/>
    <path d="M38.5 45h-29c-2 0-3.5-1.5-3.5-3.5V33h36v8.5c0 2-1.5 3.5-3.5 3.5z" fill-opacity=".2" fill="#000"/>
    <path d="M10 33h28c2 0 3 1 3 3v8H7v-8c0-2 1-3 3-3z" fill="url(#c)" transform="rotate(-180 24 38.5)"/>
    <path d="M37.5 43h-27c-2 0-2.5-.5-2.5-2.5V33h32v7.5c0 2-.5 2.5-2.5 2.5z" fill="#F9F9F9"/>
    <path d="M10 5.5h28c2.5 0 3.5 1 3.5 3.5v24h-35V9c0-2.5 1-3.5 3.5-3.5z" fill="#FFBF3F"/>
    <path d="M9.5 5h29c2 0 3.5 1.5 3.5 3.5V33H6V8.5C6 6.5 7.5 5 9.5 5z" fill-opacity=".2" fill="#000"/>
    <path d="M10 6h28c2 0 3 1 3 3v24H7V9c0-2 1-3 3-3z" fill="url(#d)"/>
    <path d="M10.5 7h27c2 0 2.5.5 2.5 2.5V33H8V9.5c0-2 .5-2.5 2.5-2.5z" fill="#FFBF3F"/>
    <path d="M11.0439122 37.0738523c0 .1809723-.0459077.3416493-.1377246.4820359-.0918168.1403866-.2242173.2495006-.3972056.3273453C10.3359938 37.9610782 10.1330684 38 9.9001996 38c-.19427908 0-.35728477-.0136393-.48902196-.0409182C9.27944046 37.9318029 9.1423826 37.8842319 9 37.8163673v-.7025948c.1503667.0771793.30671908.1373916.46906188.1806387.1623428.043247.31137656.0648702.44710578.0648702.11709974 0 .20292724-.0202925.25748504-.0608782.0545578-.0405857.0818363-.0928141.0818363-.1566866 0-.0399204-.0109779-.0748502-.0329341-.1047905-.0219562-.0299402-.0572187-.0602127-.1057884-.0908183-.0485698-.0306056-.17797636-.0931466-.3882236-.1876248-.19028703-.0864941-.33300018-.1703256-.4281437-.251497-.09514352-.0811714-.16566843-.1743175-.21157684-.2794411-.04590842-.1051236-.06886228-.2295402-.06886228-.3732535 0-.2687971.0978034-.4783758.29341317-.6287425C9.508983 35.0751822 9.77777607 35 10.1197605 35c.302064 0 .6101115.0698596.9241517.2095808l-.241517.6087825c-.2727891-.1250838-.5083157-.1876248-.7065868-.1876248-.10246227 0-.17697916.0179639-.2235529.0538922-.04657376.0359284-.0698603.0805054-.0698603.1337326 0 .0572192.02960717.1084495.08882236.1536926.0592152.0452431.21989224.1277439.48203594.247505.2514983.1131077.4261472.2345303.5239521.3642714.0978049.1297412.1467066.2930796.1467066.49002zm3.6027944.8862275h-.9321357l-.2794412-1.271457c-.0133067-.0532272-.0342646-.1590146-.0628742-.3173653-.0286096-.1583508-.0495675-.2907513-.0628743-.3972056-.0106454.0864941-.027944.1939448-.0518962.3223553-.0239522.1284105-.0475714.2465064-.0708583.3542914-.0232868.107785-.1200922.544241-.2904191 1.3093812h-.9321357l-.7225549-2.9181636h.760479l.3173653 1.4630738c.0718566.3233549.121091.5808374.1477046.7724551.0172988-.1357292.0482366-.3200254.0928143-.5528942.0445778-.2328688.0861609-.4258143.1247505-.5788423l.2574851-1.1037924h.7305389l.249501 1.1037924c.0425817.1769802.0858281.3812364.1297405.6127744.0439124.2315381.0731869.4045237.0878244.5189621.0172988-.1477053.0645372-.4038571.1417165-.7684631l.3233533-1.4670658h.7604791l-.7185629 2.9181636zm2.7225549 0l-.1437126-.5469061h-.9481038l-.1477046.5469061h-.8662674l.9520958-2.9301397h1.0518962l.9640718 2.9301397h-.8622754zm-.3073853-1.1936127l-.1257485-.479042c-.0292749-.1064542-.06487-.2441774-.1067864-.4131736-.0419164-.1689962-.0695275-.2900861-.0828343-.3632735-.0119761.0678647-.0355953.17964-.0708583.3353294-.035263.1556894-.1134392.4624062-.2345309.9201597h.6207584zm2.487026 1.1936127h-.7884232v-2.2734531h-.7125748v-.6447105h2.2115768v.6447105h-.7105788v2.2734531zm2.3453094-2.3133732c-.1876257 0-.3339982.0768455-.4391218.2305389-.1051236.1536934-.1576846.3656008-.1576846.6357286 0 .5615463.2135707.8423153.6407186.8423153.1290758 0 .2541577-.0179639.3752495-.0538922.1210917-.0359283.242847-.0791747.3652694-.1297405v.6666667C22.4351285 37.9461083 22.1596822 38 21.8522954 38c-.4404546 0-.7781093-.1277432-1.012974-.3832335-.2348648-.2554903-.3522955-.6247481-.3522955-1.1077845 0-.302064.0568857-.5675304.1706587-.7964071.1137731-.2288768.2774441-.4048564.491018-.5279442C21.3622765 35.061543 21.6134383 35 21.9021956 35c.3153708 0 .616765.0685289.9041916.2055888l-.2415169.6207585c-.107785-.0505658-.2155684-.0931469-.3233533-.1277445-.107785-.0345977-.2235523-.0518962-.3473054-.0518962zm3.8542914 2.3133732h-.7924152v-1.1896207h-.9161676v1.1896207h-.7924152v-2.9181636h.7924152v1.0818363h.9161676v-1.0818363h.7924152v2.9181636zm2.3632734 0h-1.7325349v-2.9181636h1.7325349v.6327345h-.9441117v.4590818h.8742515v.6327346h-.8742515v.5508982h.9441117v.6427145zm2.4191617-.8862275c0 .1809723-.0459077.3416493-.1377245.4820359-.0918169.1403866-.2242174.2495006-.3972056.3273453C29.8230198 37.9610782 29.6200943 38 29.3872255 38c-.194279 0-.3572847-.0136393-.4890219-.0409182-.1317372-.0272789-.268795-.0748499-.4111777-.1427145v-.7025948c.1503667.0771793.3067191.1373916.4690619.1806387.1623428.043247.3113766.0648702.4471058.0648702.1170997 0 .2029272-.0202925.257485-.0608782.0545579-.0405857.0818364-.0928141.0818364-.1566866 0-.0399204-.010978-.0748502-.0329342-.1047905-.0219562-.0299402-.0572186-.0602127-.1057884-.0908183-.0485698-.0306056-.1779763-.0931466-.3882235-.1876248-.1902871-.0864941-.3330002-.1703256-.4281438-.251497-.0951435-.0811714-.1656684-.1743175-.2115768-.2794411-.0459084-.1051236-.0688623-.2295402-.0688623-.3732535 0-.2687971.0978034-.4783758.2934132-.6287425C28.996009 35.0751822 29.264802 35 29.6067864 35c.3020641 0 .6101116.0698596.9241517.2095808l-.2415169.6087825c-.2727892-.1250838-.5083158-.1876248-.7065869-.1876248-.1024622 0-.1769791.0179639-.2235529.0538922-.0465737.0359284-.0698602.0805054-.0698602.1337326 0 .0572192.0296071.1084495.0888223.1536926.0592152.0452431.2198922.1277439.4820359.247505.2514983.1131077.4261473.2345303.5239521.3642714.0978049.1297412.1467066.2930796.1467066.49002z" fill="#333"/>
    <path d="M10.249501 41.9600798h-.46906188v-1.8842315c0-.2248847.00532264-.403193.01596807-.5349301-.03060563.0319363-.06819674.0671987-.11277448.1057884-.04457773.0385897-.19394417.1610103-.4481038.3672655L9 39.7165669l.85828343-.6746507h.39121757v2.9181636zm2.8243513-2.2475049c0 .1849643-.0538917.338988-.1616767.4620758-.1077849.1230878-.25948.2059213-.4550898.248503v.0159681c.2341995.0292749.4098464.1021284.5269461.2185628.1170998.1164344.1756487.2711235.1756487.4640719 0 .2807732-.099134.4973379-.2974052.6497006C12.6640043 41.9238198 12.3819047 42 12.0159681 42c-.3233549 0-.59614-.052561-.8183633-.1576846v-.4171657c.1237531.0612112.254823.1084496.3932136.1417166.1383905.0332669.2714564.0499002.3992016.0499002.2262153 0 .395209-.0419158.506986-.1257485.111777-.0838328.1676647-.213572.1676647-.3892216 0-.1556894-.0618757-.270126-.1856288-.3433134-.1237531-.0731873-.3180293-.1097804-.5828343-.1097804h-.253493v-.3812375h.257485c.4657375 0 .6986028-.1610097.6986028-.483034 0-.1250838-.0405851-.2215565-.1217565-.2894211s-.2009307-.1017964-.3592814-.1017964c-.1104464 0-.2168991.0156352-.3193613.0469062-.1024623.0312709-.2235522.0921485-.3632735.1826347l-.2295409-.3273453C11.4730552 39.0984687 11.783764 39 12.1377246 39c.2940799 0 .5236186.0632063.6886227.1896208.1650042.1264144.247505.3007307.247505.5229541zm.4730539 1.003992c0-1.1417223.4650652-1.7125749 1.3952096-1.7125749.1463746 0 .2701259.0113106.3712575.0339322v.3912175c-.1011316-.0292749-.2182296-.0439122-.3512975-.0439122-.3127094 0-.5475707.0838315-.7045908.251497-.15702.1676656-.2421822.4364586-.255489.8063873h.0239521c.0625419-.107785.1503654-.1912838.2634731-.250499.1131076-.0592152.2461735-.0888224.3992016-.0888224.264805 0 .4710571.0811702.6187624.243513.1477054.1623428.2215569.3825668.2215569.6606786 0 .3060561-.0854948.5479033-.256487.7255489C15.1014629 41.9111785 14.868265 42 14.5728543 42c-.2089166 0-.3905515-.0502324-.5449102-.1506986-.1543587-.1004662-.27312-.2468387-.3562874-.4391218-.0831674-.192283-.1247505-.423485-.1247505-.6936127zm1.0179641.8962076c.1610121 0 .285096-.0518957.3722554-.1556887.0871595-.1037929.1307386-.2521613.1307386-.4451098 0-.1676655-.0409178-.2994007-.1227545-.3952095-.0818368-.0958089-.20459-.1437126-.3682635-.1437126-.1011316 0-.1942777.0216232-.2794411.0648703-.0851634.043247-.1523617.1024613-.2015968.1776447-.0492351.0751833-.0738523.1520288-.0738523.2305389 0 .1876257.0508977.3456414.1526946.4740519.1017969.1284105.2318688.1926148.3902196.1926148zm3.8163672-2.2035929c-.2741198 0-.4896865.0971381-.6467066.2914172-.15702.1942791-.2355289.4624068-.2355289.8043912 0 .3579526.0755149.6287416.2265469.8123753.151032.1836336.3695927.2754491.6556886.2754491.1237531 0 .2435124-.0123086.3592815-.0369262.115769-.0246175.2361936-.0562207.3612774-.0948104v.4091817C18.8729197 41.9567536 18.6134412 42 18.3233533 42c-.4271479 0-.7551552-.1294066-.9840319-.3882236-.2288768-.2588169-.3433134-.6290727-.3433134-1.1107784 0-.3033947.055555-.5688611.1666667-.7964072.1111116-.227546.2717887-.4018623.4820359-.5229541C17.8549578 39.060545 18.101795 39 18.3852295 39c.2980721 0 .5735184.062541.8263473.1876248l-.1716566.3972055c-.0984703-.0465737-.2025943-.0874915-.3123753-.1227545-.109781-.0352629-.2252156-.0528942-.3463074-.0528942z" fill="#666"/>
    <path d="M10 6h14L7 34.6511628V9c0-2 1-3 3-3z" fill="url(#e)" opacity=".5"/>
  </g>
</svg>
