<svg width="128" height="128" viewBox="0 0 128 128" xmlns="http://www.w3.org/2000/svg">
  <defs>
    <linearGradient x1="50%" y1="0%" x2="50%" y2="100%" id="a">
      <stop stop-opacity="0" offset="0%"/>
      <stop offset="49.8447963%"/>
      <stop stop-opacity="0" offset="100%"/>
    </linearGradient>
    <radialGradient cx="0%" fx="0%" fy="50%" r="63.6829723%" id="b">
      <stop offset="0%"/>
      <stop stop-opacity="0" offset="100%"/>
    </radialGradient>
    <linearGradient x1="50%" y1="0%" x2="50%" y2="85.0368565%" id="c">
      <stop stop-color="#FFF" offset="0%"/>
      <stop stop-color="#F9F9F9" offset="100%"/>
    </linearGradient>
    <linearGradient x1="50%" y1="0%" x2="50%" y2="87.2130102%" id="d">
      <stop stop-color="#FFD787" offset="0%"/>
      <stop stop-color="#FFBF3F" offset="100%"/>
    </linearGradient>
    <linearGradient x1="50%" y1="2.37479907%" x2="50%" y2="98.5590721%" id="e">
      <stop stop-color="#FFF" stop-opacity=".4" offset="0%"/>
      <stop stop-color="#FFF" stop-opacity="0" offset="100%"/>
    </linearGradient>
  </defs>
  <g fill="none" fill-rule="evenodd">
    <path fill-opacity=".25" fill="url(#a)" d="M29 106.758621h70v14.2413793H29z"/>
    <path fill-opacity=".25" fill="url(#b)" d="M99 106.758621h22v14.2413793H99z"/>
    <path fill-opacity=".25" fill="url(#b)" transform="rotate(-180 18 113.88)" d="M7 106.758621h22v14.2413793H7z"/>
    <path d="M101.4255319 116.5H26.574468c-5.053191 0-7.074468-2.1034483-7.074468-7.362069V87h89v22.137931c0 5.2586207-2.0212766 7.362069-7.0744681 7.362069z" fill="#F9F9F9"/>
    <path d="M102 116.931034H26c-4 0-7-3.0517241-7-7.1206897V87h90v22.8103443c0 4.0689656-3 7.1206897-7 7.1206897z" fill-opacity=".2" fill="#000"/>
    <path d="M26.1304348 87h75.7391302C105.956522 87 108 89.1428571 108 93.4285714V116H20V93.4285714C20 89.1428571 22.0434783 87 26.1304348 87z" fill="url(#c)" transform="rotate(-180 64 101.5)"/>
    <path d="M101.7727273 115H26.227273C22.045455 115 21 113.8846154 21 109.4230769V87h86v22.4230769C107 113.8846154 105.9545455 115 101.7727273 115z" fill="#F9F9F9"/>
    <path d="M26.5744681 13.5h74.8510639c5.053191 0 7.074468 2.037037 7.074468 7.1296296V87h-89V20.6296296C19.5 15.537037 21.5212766 13.5 26.5744681 13.5z" fill="#FFBF3F"/>
    <path d="M25.5 13h77c4 0 6.5 2.4310345 6.5 6.5V87H19V19.5c0-4.0689655 2.5-6.5 6.5-6.5z" fill-opacity=".2" fill="#000"/>
    <path d="M26.1304348 14.0344828h75.7391302c4.086957 0 6.130435 2.0344827 6.130435 6.1034482V87H20V20.137931c0-4.0689655 2.0434783-6.1034482 6.1304348-6.1034482z" fill="url(#d)"/>
    <path d="M26.2272727 15.0689655h75.5454543c4.181818 0 5.227273 1.0172414 5.227273 5.0862069V87H21V20.1551724c0-4.0689655 1.0454545-5.0862069 5.2272727-5.0862069z" fill="#FFBF3F"/>
    <path d="M31 97.0878906c0 .5312527-.1347643 1.0029277-.4042969 1.4150391-.2695326.4121114-.6582006.7324207-1.1660156.9609375-.507815.2285168-1.1035122.3427734-1.7871094.3427734-.5703153 0-1.0488262-.0400386-1.4355469-.1201172-.3867206-.0800785-.7890604-.2197255-1.2070312-.4189453v-2.0625c.4414085.2265637.9003882.4033197 1.3769531.5302735.4765649.1269537.9140605.1904296 1.3125.1904296.3437517 0 .5957023-.0595697.7558594-.1787109.1601571-.1191412.2402344-.27246.2402344-.4599609 0-.1171881-.0322263-.2197261-.0966797-.3076172-.0644535-.0878911-.167968-.1767574-.3105469-.2666016-.1425788-.0898442-.5224578-.2734361-1.1396484-.5507812-.5585966-.2539075-.9775377-.4999988-1.256836-.7382813-.2792982-.2382824-.4863274-.5117172-.6210937-.8203125-.1347663-.3085953-.2021484-.673826-.2021484-1.0957031 0-.7890664.2871065-1.4042947.8613281-1.8457031C26.4941435 91.2207009 27.2831981 91 28.2871094 91c.8867232 0 1.791011.2050761 2.7128906.6152344l-.7089844 1.7871094c-.8007852-.3671894-1.4921846-.5507813-2.0742187-.5507813-.3007828 0-.5195306.0527338-.65625.1582031-.1367195.1054693-.2050781.2363274-.2050781.3925782 0 .1679695.0869131.3183587.2607421.4511718.173829.1328132.645504.3749983 1.4150391.7265625.7382849.3320329 1.2509751.6884747 1.5380859 1.069336.2871108.3808612.4306641.8603486.4306641 1.4384765zm10.5761719 2.6015625h-2.7363281l-.8203126-3.7324219c-.0390626-.1562507-.1005855-.4667945-.1845703-.9316406-.0839848-.464846-.1455076-.853514-.1845703-1.1660156-.0312501.2539075-.0820309.5693341-.1523437.9462891-.0703129.376955-.1396481.7236312-.2080078 1.040039-.0683598.3164079-.3525366 1.597645-.8525391 3.84375h-2.7363281l-2.1210938-8.5664062H33.8125l.9316406 4.2949219c.2109386.9492234.3554684 1.7050753.4335938 2.2675781.0507815-.3984395.1416009-.9394497.2724609-1.6230469s.2529291-1.2499978.3662109-1.6992188l.7558594-3.2402343h2.1445313l.7324219 3.2402343c.1250006.5195339.2519524 1.1191373.3808593 1.7988282s.2148436 1.1874983.2578125 1.5234375c.0507815-.4335959.189452-1.1855415.4160156-2.2558594l.9492188-4.3066406h2.2324219l-2.109375 8.5664062zm7.9921875 0l-.421875-1.6054687h-2.7832032l-.4335937 1.6054687h-2.5429687l2.7949218-8.6015625h3.0878906l2.8300782 8.6015625h-2.53125zm-.9023438-3.5039062l-.3691406-1.40625c-.0859379-.3125016-.1904291-.7167944-.3134766-1.2128907-.1230475-.4960962-.2041013-.8515614-.243164-1.0664062-.0351565.1992197-.1044917.5273415-.2080078.984375-.1035162.4570335-.3330061 1.3574152-.6884766 2.7011719h1.8222656zm7.3007813 3.5039062h-2.3144531V93.015625h-2.0917969v-1.8925781h6.4921875v1.8925781h-2.0859375v6.6738281zm6.8847656-6.7910156c-.550784 0-.9804672.2255837-1.2890625.6767578-.3085953.4511741-.4628906 1.0732382-.4628906 1.8662109 0 1.6484458.6269468 2.4726563 1.8808594 2.4726563.3789081 0 .7460919-.0527338 1.1015624-.1582031.3554706-.1054693.7128889-.2324212 1.0722657-.3808594v1.9570312c-.7148473.3164079-1.523433.4746094-2.4257813.4746094-1.2929752 0-2.2841762-.3749962-2.9736328-1.125-.6894566-.7500037-1.0341797-1.8339773-1.0341797-3.2519531 0-.8867232.1669905-1.6660123.5009766-2.3378906.333986-.6718784.81445-1.1884748 1.4414062-1.5498047C61.2900422 91.1806623 62.0273395 91 62.875 91c.9257859 0 1.8105427.2011699 2.6542969.6035156l-.7089844 1.8222656c-.3164078-.1484382-.6328109-.2734369-.9492187-.375-.3164079-.101563-.6562482-.1523437-1.0195313-.1523437zm11.3144531 6.7910156h-2.3261718v-3.4921875h-2.6894532v3.4921875h-2.3261718v-8.5664062h2.3261718v3.1757812h2.6894532v-3.1757812h2.3261718v8.5664062zm6.9375 0h-5.0859375v-8.5664062h5.0859375v1.8574219h-2.7714844v1.3476562h2.5664063v1.8574219h-2.5664063v1.6171875h2.7714844v1.8867187zm7.1015625-2.6015625c0 .5312527-.1347643 1.0029277-.4042969 1.4150391-.2695325.4121114-.6582005.7324207-1.1660156.9609375-.507815.2285168-1.1035122.3427734-1.7871094.3427734-.5703153 0-1.0488261-.0400386-1.4355468-.1201172-.3867207-.0800785-.7890604-.2197255-1.2070313-.4189453v-2.0625c.4414085.2265637.9003883.4033197 1.3769531.5302735.4765649.1269537.9140606.1904296 1.3125.1904296.3437518 0 .5957024-.0595697.7558594-.1787109.1601571-.1191412.2402344-.27246.2402344-.4599609 0-.1171881-.0322262-.2197261-.0966797-.3076172-.0644534-.0878911-.167968-.1767574-.3105469-.2666016-.1425788-.0898442-.5224578-.2734361-1.1396484-.5507812-.5585965-.2539075-.9775377-.4999988-1.2568359-.7382813-.2792983-.2382824-.4863275-.5117172-.6210938-.8203125s-.2021484-.673826-.2021484-1.0957031c0-.7890664.2871065-1.4042947.8613281-1.8457031C83.6992216 91.2207009 84.4882762 91 85.4921875 91c.8867232 0 1.791011.2050761 2.7128906.6152344l-.7089843 1.7871094c-.8007853-.3671894-1.4921846-.5507813-2.0742188-.5507813-.3007828 0-.5195306.0527338-.65625.1582031-.1367194.1054693-.2050781.2363274-.2050781.3925782 0 .1679695.0869132.3183587.2607422.4511718.173829.1328132.6455039.3749983 1.415039.7265625.738285.3320329 1.2509752.6884747 1.538086 1.069336.2871108.3808612.430664.8603486.430664 1.4384765z" fill="#333"/>
    <path d="M28.6708366 111.696247h-1.3780297v-5.535575c0-.660675.015637-1.184517.0469116-1.57154-.0899144.093824-.2003512.197419-.3313135.31079-.1309623.11337-.5697773.473023-1.3164582 1.078968L25 105.10516l2.5215012-1.982017h1.1493354v8.573104zm8.297498-6.602815c0 .543396-.1583252.995894-.4749804 1.357506-.3166552.361613-.7623115.604964-1.336982.730063v.046911c.6880409.086006 1.2040639.300038 1.5480844.642104.3440205.342065.5160282.796518.5160282 1.363369 0 .824868-.2912403 1.461101-.8737295 1.908718-.5824893.447618-1.4112534.671423-2.4863175.671423-.9499656 0-1.751365-.154416-2.404222-.463252v-1.225567c.3635671.179829.7486297.318608 1.1551994.416341.4065696.097733.7974961.146599 1.1727912.146599.664585 0 1.1610617-.123142 1.4894449-.36943.3283832-.246287.4925723-.62744.4925723-1.143471 0-.457391-.1817808-.793588-.5453479-1.008601-.3635671-.215012-.9343198-.322517-1.7122752-.322517h-.7447225v-1.120016h.7564504c1.3682633 0 2.0523847-.473021 2.0523847-1.419077 0-.367477-.1192326-.650898-.3577014-.850274-.2384687-.199375-.5903026-.299062-1.0555121-.299062-.3244739 0-.6372151.045934-.938233.137803-.3010179.091869-.656761.270718-1.06724.536552l-.674355-.961688c.7857741-.57858 1.6985875-.867866 2.7384676-.867866.8639605 0 1.5383087.18569 2.0230649.557076.4847561.371386.7271305.883499.7271305 1.536356zm1.3897577 2.94957c0-3.354199 1.3662881-5.031274 4.0989054-5.031274.4300256 0 .7935872.033229 1.0906958.099687v1.149336c-.2971086-.086006-.6411239-.129007-1.0320563-.129007-.9186911 0-1.6086763.246283-2.0699765.738858-.4613002.492575-.7114932 1.282246-.7505864 2.369038h.0703675c.1837382-.316655.4417497-.561961.7740422-.735926.3322925-.173965.723219-.260946 1.1727912-.260946.7779554 0 1.3838915.238465 1.8178264.715402.433935.476938.6508992 1.123921.6508992 1.94097 0 .899144-.2511703 1.609653-.7535184 2.131548-.5023481.521895-1.1874468.782838-2.0553166.782838-.6137639 0-1.1473785-.147575-1.6008601-.442729-.4534815-.295153-.8023834-.725173-1.0467162-1.29007-.2443327-.564897-.3664972-1.244132-.3664972-2.037725zm2.9906176 2.632917c.4730282 0 .8375672-.152462 1.0936279-.457389.2560607-.304927.3840891-.74081.3840891-1.307662 0-.492575-.1202099-.879592-.3606333-1.161063-.2404234-.281472-.6010531-.422205-1.0818999-.422205-.2971086 0-.5707572.063525-.8209539.190578-.2501967.127053-.4476146.301016-.5922596.521892-.144645.220877-.2169664.446637-.2169664.677287 0 .551215.1495294 1.01544.4485927 1.39269.2990633.37725.6811939.565872 1.1464034.565872zm11.2118843-6.473808c-.8053207 0-1.4386216.285376-1.8999218.856138-.4613002.570761-.6919468 1.358478-.6919468 2.363174 0 1.051608.2218508 1.847143.665559 2.38663.4437082.539487 1.085805.809226 1.9263096.809226.3635671 0 .715401-.036161 1.0555121-.108483.3401112-.072323.6938997-.165168 1.0613761-.278538v1.202111c-.6724037.254106-1.4347104.381157-2.2869429.381157-1.2548929 0-2.2185268-.380176-2.8909304-1.140539-.6724037-.760364-1.0086005-1.848117-1.0086005-3.263292 0-.891326.1632118-1.671224.4896403-2.339718.3264286-.668495.7984723-1.180609 1.4161455-1.536357.6176731-.355748 1.3428418-.53362 2.1755277-.53362.8756885 0 1.6849064.183735 2.4276779.551212l-.5043002 1.166927c-.28929-.136826-.59519-.257036-.9177092-.360633s-.6616479-.155395-1.0173964-.155395z" fill="#666"/>
    <path d="M26 14h37L20 80V20c0-4 2-6 6-6z" fill="url(#e)" opacity=".5"/>
  </g>
</svg>
