<?xml version="1.0" encoding="UTF-8" standalone="no"?>
<svg
   xmlns:dc="http://purl.org/dc/elements/1.1/"
   xmlns:cc="http://creativecommons.org/ns#"
   xmlns:rdf="http://www.w3.org/1999/02/22-rdf-syntax-ns#"
   xmlns:svg="http://www.w3.org/2000/svg"
   xmlns="http://www.w3.org/2000/svg"
   xmlns:sodipodi="http://sodipodi.sourceforge.net/DTD/sodipodi-0.dtd"
   xmlns:inkscape="http://www.inkscape.org/namespaces/inkscape"
   width="64"
   height="64"
   viewBox="0 0 64 64"
   version="1.1"
   id="svg2"
   inkscape:version="0.91 r13725"
   sodipodi:docname="revised.svg">
  <metadata
     id="metadata36">
    <rdf:RDF>
      <cc:Work
         rdf:about="">
        <dc:format>image/svg+xml</dc:format>
        <dc:type
           rdf:resource="http://purl.org/dc/dcmitype/StillImage" />
        <dc:title>128</dc:title>
      </cc:Work>
    </rdf:RDF>
  </metadata>
  <sodipodi:namedview
     pagecolor="#ffffff"
     bordercolor="#666666"
     borderopacity="1"
     objecttolerance="10"
     gridtolerance="10"
     guidetolerance="10"
     inkscape:pageopacity="0"
     inkscape:pageshadow="2"
     inkscape:window-width="1358"
     inkscape:window-height="704"
     id="namedview34"
     showgrid="false"
     inkscape:zoom="8.41"
     inkscape:cx="64"
     inkscape:cy="16.621132"
     inkscape:window-x="5"
     inkscape:window-y="30"
     inkscape:window-maximized="0"
     inkscape:current-layer="svg2" />
  <!-- Generator: Sketch 41 (35326) - http://www.bohemiancoding.com/sketch -->
  <title
     id="title4">128</title>
  <desc
     id="desc6">Created with Sketch.</desc>
  <defs
     id="defs8">
    <linearGradient
       x1="35.259605"
       y1="3.056226"
       x2="35.259605"
       y2="61.364845"
       id="linearGradient-1"
       gradientTransform="scale(0.80829038,1.2371791)"
       gradientUnits="userSpaceOnUse">
      <stop
         stop-color="#FFD071"
         offset="0%"
         id="stop11" />
      <stop
         stop-color="#FFBF3F"
         offset="100%"
         id="stop13" />
    </linearGradient>
    <linearGradient
       x1="35.259605"
       y1="3.056226"
       x2="35.259605"
       y2="61.364845"
       id="linearGradient-1-7"
       gradientTransform="matrix(0.40414519,0,0,0.61858955,7.5,2.9999997)"
       gradientUnits="userSpaceOnUse">
      <stop
         stop-color="#FFD071"
         offset="0%"
         id="stop11-5" />
      <stop
         stop-color="#FFBF3F"
         offset="100%"
         id="stop13-3" />
    </linearGradient>
  </defs>
  <g
     style="fill:none;fill-rule:evenodd;stroke:none;stroke-width:1"
     id="128"
     transform="scale(0.5,0.5)">
    <rect
       height="128"
       width="128"
       y="0"
       x="0"
       id="Rectangle" />
    <g
       transform="translate(15,6)"
       id="Group">
      <path
         style="fill:#000000;fill-opacity:0.1"
         inkscape:connector-curvature="0"
         id="shadow-l"
         d="M 1,6.9968199 C 1,4.2371525 3.2316886,2 5.9926688,2 L 92.007331,2 C 94.764706,2 97,4.2456043 97,6.9968199 L 97,112.00318 C 97,114.76285 94.768311,117 92.007331,117 L 5.9926688,117 C 3.235294,117 1,114.7544 1,112.00318 L 1,6.9968199 Z" />
      <path
         style="fill:#000000;fill-opacity:0.05"
         inkscape:connector-curvature="0"
         id="shadow-l-copy"
         d="M 0,8.7422134 C 0,5.5708765 2.5708892,3 5.7464417,3 L 92.253558,3 C 95.42723,3 98,5.5768338 98,8.7422134 L 98,112.25779 C 98,115.42912 95.429111,118 92.253558,118 L 5.7464417,118 C 2.5727696,118 0,115.42317 0,112.25779 L 0,8.7422134 Z" />
      <path
         style="fill:#000000;fill-opacity:0.05"
         inkscape:connector-curvature="0"
         id="shadow-m"
         d="m 5,114 c 0,-2.76142 2.2414647,-5 4.9993488,-5 l 78.0013022,0 C 90.761715,109 93,111.2442 93,114 l 0,0 c 0,2.76142 -2.241465,5 -4.999349,5 L 9.9993488,119 C 7.2382847,119 5,116.7558 5,114 l 0,0 z" />
      <path
         style="fill:#000000;fill-opacity:0.05"
         inkscape:connector-curvature="0"
         id="shadow-m-copy"
         d="M 10,114.75107 C 10,112.12713 12.126764,110 14.747244,110 l 68.505512,0 C 85.874586,110 88,112.12074 88,114.75107 l 0,0.49786 C 88,117.87287 85.873236,120 83.252756,120 l -68.505512,0 C 12.125414,120 10,117.87926 10,115.24893 l 0,-0.49786 z" />
    </g>
  </g>
  <path
     style="fill:#f2f2f2;fill-rule:evenodd;stroke:none;stroke-width:1"
     inkscape:connector-curvature="0"
     id="top-outline-3"
     d="M 8.5,58.874965 C 8.5,60.04859 9.449464,61 10.626186,61 l 42.747624,0 c 1.17426,0 2.126185,-0.94823 2.126185,-2.125035 l 0,-40.874963 -46.999995,0 0,40.874963 z" />
  <path
     style="fill:#ffffff;fill-rule:evenodd;stroke:none;stroke-width:1"
     inkscape:connector-curvature="0"
     id="top-fill-6"
     d="M 9.5,58.626465 C 9.5,59.385045 10.119009,60 10.871331,60 L 53.12867,60 C 53.886035,60 54.5,59.381915 54.5,58.626465 L 54.5,18 l -45,0 0,40.626465 z" />
  <text
     y="-0.7955662"
     x="-1.2755237"
     style="font-weight:600;font-size:5.5px;font-family:OpenSans-Extrabold, 'Open Sans';fill:#333333;fill-rule:evenodd;stroke:none;stroke-width:1"
     font-weight="600"
     font-size="11"
     id="SWATCHES">
    <tspan
       id="tspan29"
       y="51.704433"
       x="10.224477">SWATCHES</tspan>
  </text>
  <text
     y="-0.7955662"
     x="-1.2755237"
     style="font-weight:500;font-size:5px;font-family:OpenSans-Semibold, 'Open Sans';fill:#666666;fill-rule:evenodd;stroke:none;stroke-width:1"
     font-weight="500"
     font-size="10"
     id="136-C">
    <tspan
       id="tspan32"
       y="57.204433"
       x="10.224477">136 C</tspan>
  </text>
  <path
     style="fill:#f4b331;fill-rule:evenodd;stroke:none;stroke-width:1"
     inkscape:connector-curvature="0"
     id="top-outline"
     d="m 8.5,5.1250377 c 0,-1.173626 0.949464,-2.125038 2.126186,-2.125038 l 42.747628,0 c 1.17426,0 2.126186,0.94823 2.126186,2.125038 L 55.5,46 8.5,46 8.5,5.1250377 Z" />
  <path
     style="fill:#ffbf3f;fill-rule:evenodd;stroke:none;stroke-width:1"
     inkscape:connector-curvature="0"
     id="top-fill"
     d="m 9.5,5.3735367 c 0,-0.758584 0.619009,-1.373537 1.371332,-1.373537 l 42.257337,0 c 0.757365,0 1.371331,0.618088 1.371331,1.373537 L 54.5,46 9.5,46 9.5,5.3735367 Z" />
  <path
     inkscape:connector-curvature="0"
     style="fill:url(#linearGradient-1-7);fill-rule:evenodd;stroke:none;stroke-width:1"
     id="glare"
     d="m 9.5,5.3784007 c 0,-0.76127 0.617875,-1.378401 1.378562,-1.378401 L 34,3.9999997 9.5,41.5 l 0,-21 0,-15.1215993 z" />
</svg>
