<svg width="64" height="64" viewBox="0 0 64 64" xmlns="http://www.w3.org/2000/svg">
  <title>
    swatches64
  </title>
  <defs>
    <linearGradient x1="50%" y1="0%" x2="50%" y2="100%" id="a">
      <stop stop-opacity="0" offset="0%"/>
      <stop offset="49.8447963%"/>
      <stop stop-opacity="0" offset="100%"/>
    </linearGradient>
    <radialGradient cx="0%" fx="0%" fy="50%" r="63.6829723%" id="b">
      <stop offset="0%"/>
      <stop stop-opacity="0" offset="100%"/>
    </radialGradient>
    <linearGradient x1="50%" y1="0%" x2="50%" y2="85.0368565%" id="c">
      <stop stop-color="#FFF" offset="0%"/>
      <stop stop-color="#F9F9F9" offset="100%"/>
    </linearGradient>
    <linearGradient x1="50%" y1="0%" x2="50%" y2="87.2130102%" id="d">
      <stop stop-color="#FFD787" offset="0%"/>
      <stop stop-color="#FFBF3F" offset="100%"/>
    </linearGradient>
    <linearGradient x1="50%" y1="2.37479907%" x2="50%" y2="98.5590721%" id="e">
      <stop stop-color="#FFF" stop-opacity=".4" offset="0%"/>
      <stop stop-color="#FFF" stop-opacity="0" offset="100%"/>
    </linearGradient>
  </defs>
  <g fill="none" fill-rule="evenodd">
    <path fill-opacity=".25" fill="url(#a)" d="M12 56h40v7H12z"/>
    <path fill-opacity=".25" fill="url(#b)" d="M52 56h11v7H52z"/>
    <path fill-opacity=".25" fill="url(#b)" transform="rotate(-180 6.5 59.5)" d="M1 56h11v7H1z"/>
    <path d="M52 59.5H12c-2.5 0-3.5-1-3.5-3.5V45h47v11c0 2.5-1 3.5-3.5 3.5z" fill="#F9F9F9"/>
    <path d="M52.5 60h-41c-2 0-3.5-1.5-3.5-3.5V45h48v11.5c0 2-1.5 3.5-3.5 3.5z" fill-opacity=".2" fill="#000"/>
    <path d="M12 45h40c2 0 3 1 3 3v11H9V48c0-2 1-3 3-3z" fill="url(#c)" transform="rotate(-180 32 52)"/>
    <path d="M51.5 58h-39c-2 0-2.5-.5-2.5-2.5V45h44v10.5c0 2-.5 2.5-2.5 2.5z" fill="#F9F9F9"/>
    <path d="M12 4.5h40c2.5 0 3.5 1 3.5 3.5v37h-47V8c0-2.5 1-3.5 3.5-3.5z" fill="#FFBF3F"/>
    <path d="M11.5 4h41c2 0 3.5 1.5 3.5 3.5V45H8V7.5C8 5.5 9.5 4 11.5 4z" fill-opacity=".2" fill="#000"/>
    <path d="M12 5h40c2 0 3 1 3 3v37H9V8c0-2 1-3 3-3z" fill="url(#d)"/>
    <path d="M12.5 6h39c2 0 2.5.5 2.5 2.5V45H10V8.5c0-2 .5-2.5 2.5-2.5z" fill="#FFBF3F"/>
    <path d="M13.7636719 49.6992188c0 .2656263-.0673822.5014638-.2021485.7075195-.1347663.2060557-.3291003.3662103-.5830078.4804687-.2539075.1142584-.5517561.1713868-.8935547.1713868-.2851576 0-.5244131-.0200194-.7177734-.0600586-.1933603-.0400393-.3945302-.1098628-.6035156-.2094727v-1.03125c.2207042.1132818.4501941.2016598.6884765.2651367.2382825.0634769.4570303.0952149.65625.0952149.1718759 0 .2978512-.0297849.3779297-.0893555.0800786-.0595706.1201172-.13623.1201172-.2299805 0-.058594-.0161131-.109863-.0483398-.1538086-.0322268-.0439455-.083984-.0883787-.1552735-.1333007-.0712894-.0449221-.2612289-.1367181-.5698242-.2753907-.2792983-.1269537-.4887688-.2499994-.628418-.3691406-.1396491-.1191412-.2431637-.2558586-.3105468-.4101563-.0673832-.1542976-.1010742-.336913-.1010742-.5478515 0-.3945332.1435532-.7021473.430664-.9228516.2871108-.2207042.6816381-.3310547 1.1835938-.3310547.4433616 0 .8955055.1025381 1.3564453.3076172l-.3544922.8935547c-.4003926-.1835947-.7460923-.2753906-1.0371094-.2753906-.1503914 0-.2597653.0263669-.328125.0791015-.0683597.0527347-.1025391.1181637-.1025391.1962891 0 .0839848.0434566.1591794.1303711.2255859.0869145.0664066.322752.1874992.7075196.3632813.3691424.1660165.6254875.3442373.7690429.534668.1435554.1904306.2153321.4301743.2153321.7192383zM19.0517578 51h-1.368164l-.4101563-1.8662109c-.0195313-.0781254-.0502928-.2333973-.0922852-.4658203-.0419924-.2324231-.0727538-.4267571-.0922851-.5830079-.0156251.1269538-.0410155.2846671-.0761719.4731446-.0351564.1884775-.069824.3618156-.1040039.5200195-.0341799.1582039-.1762683.7988225-.4262695 1.921875h-1.3681641l-1.0605469-4.2832031h1.116211l.4658203 2.1474609c.1054693.4746118.1777342.8525377.2167969 1.1337891.0253907-.1992198.0708004-.4697249.1362304-.8115235.06543-.3417985.1264646-.6249988.1831055-.8496093l.3779297-1.6201172h1.0722656l.3662109 1.6201172c.0625004.2597669.1259763.5595686.1904297.899414.0644535.3398455.1074218.5937492.1289063.7617188.0253907-.216798.094726-.5927708.2080078-1.1279297l.4746094-2.1533203h1.1162109L19.0517578 51zm3.9960938 0l-.2109375-.8027344h-1.3916016L21.2285156 51h-1.2714844l1.397461-4.3007812h1.5439453L24.3134766 51h-1.265625zm-.4511719-1.7519531l-.1845703-.703125c-.042969-.1562508-.0952146-.3583972-.1567383-.6064453-.0615238-.2480482-.1020507-.4257808-.121582-.5332032-.0175783.0996099-.0522459.2636708-.1040039.4921875-.0517581.2285168-.1665031.6787076-.3442383 1.350586h.9111328zM26.2470703 51h-1.1572265v-3.3369141h-1.0458985v-.946289h3.2460938v.946289h-1.0429688V51zm3.4423828-3.3955078c-.275392 0-.4902336.1127918-.6445312.3383789-.1542977.2255871-.2314453.5366191-.2314453.9331055 0 .8242228.3134734 1.2363281.9404296 1.2363281.1894541 0 .373046-.0263669.5507813-.0791016.1777353-.0527346.3564444-.1162105.5361328-.1904297v.9785157c-.3574236.1582039-.7617165.2373047-1.2128906.2373047-.6464876 0-1.1420881-.1874982-1.4868164-.5625-.3447283-.3750019-.5170899-.9169887-.5170899-1.6259766 0-.4433616.0834953-.8330061.2504883-1.1689453.166993-.3359392.407225-.5942374.7207031-.7749024.3134782-.1806649.6821268-.2709961 1.1059571-.2709961.4628929 0 .9052713.100585 1.3271484.3017578l-.3544922.9111329c-.1582039-.0742192-.3164054-.1367185-.4746093-.1875-.158204-.0507815-.3281241-.0761719-.5097657-.0761719zM35.3466797 51h-1.1630859v-1.7460938h-1.3447266V51h-1.163086v-4.2832031h1.163086v1.5878906h1.3447266v-1.5878906h1.1630859V51zm3.46875 0h-2.5429688v-4.2832031h2.5429688v.9287109h-1.3857422v.6738281h1.2832031v.928711h-1.2832031v.8085937h1.3857422V51zm3.5507812-1.3007812c0 .2656263-.0673821.5014638-.2021484.7075195-.1347663.2060557-.3291003.3662103-.5830078.4804687-.2539075.1142584-.5517561.1713868-.8935547.1713868-.2851577 0-.5244131-.0200194-.7177734-.0600586-.1933604-.0400393-.3945302-.1098628-.6035157-.2094727v-1.03125c.2207043.1132818.4501942.2016598.6884766.2651367s.4570303.0952149.65625.0952149c.1718759 0 .2978512-.0297849.3779297-.0893555s.1201172-.13623.1201172-.2299805c0-.058594-.0161131-.109863-.0483399-.1538086-.0322267-.0439455-.083984-.0883787-.1552734-.1333007-.0712894-.0449221-.2612289-.1367181-.5698242-.2753907-.2792983-.1269537-.4887689-.2499994-.628418-.3691406-.1396491-.1191412-.2431637-.2558586-.3105469-.4101563-.0673831-.1542976-.1010742-.336913-.1010742-.5478515 0-.3945332.1435533-.7021473.4306641-.9228516.2871108-.2207042.6816381-.3310547 1.1835937-.3310547.4433616 0 .8955055.1025381 1.3564453.3076172l-.3544921.8935547c-.4003927-.1835947-.7460923-.2753906-1.0371094-.2753906-.1503914 0-.2597653.0263669-.328125.0791015-.0683597.0527347-.1025391.1181637-.1025391.1962891 0 .0839848.0434566.1591794.1303711.2255859.0869145.0664066.322752.1874992.7075195.3632813.3691425.1660165.6254876.3442373.769043.534668.1435554.1904306.215332.4301743.215332.7192383z" fill="#333"/>
    <path d="M12.7851562 57h-.6884765v-2.765625c0-.3300798.0078124-.5917959.0234375-.7851562-.0449221.0468752-.1000973.0986325-.1655274.1552734-.06543.0566409-.2846661.2363266-.6577148.5390625l-.3457031-.4365235 1.2597656-.9902343h.5742187V57zm4.1455079-3.2988281c0 .2714857-.0791008.4975577-.2373047.6782226-.1582039.180665-.380858.3022458-.6679688.3647461v.0234375c.3437517.042969.6015617.1499015.7734375.3208008.1718759.1708993.2578125.3979478.2578125.6811523 0 .4121115-.1455063.7299794-.4365234.9536133-.2910171.223634-.7050755.3354493-1.2421875.3354493-.4746118 0-.8749984-.0771477-1.2011719-.2314454v-.6123046c.1816415.0898441.3740224.1591794.5771484.2080078.2031261.0488283.3984366.0732422.5859376.0732422.3320329 0 .5800773-.0615229.7441406-.1845704.1640633-.1230475.2460937-.3134752.2460937-.571289 0-.2285168-.0908194-.3964839-.2724609-.5039063-.1816415-.1074224-.4667949-.1611328-.8554688-.1611328h-.3720703v-.5595703h.3779297c.6835972 0 1.0253906-.2363258 1.0253906-.7089844 0-.1835946-.0595697-.3251948-.1787109-.4248047-.1191412-.0996098-.2949207-.149414-.5273437-.149414-.1621102 0-.3183587.022949-.46875.0688476-.1503914.0458987-.328124.1352533-.5332032.2680664l-.336914-.4804687c.3925801-.289064.8486302-.4335938 1.368164-.4335938.4316428 0 .7685535.0927725 1.0107422.2783204.2421887.1855478.3632813.4414046.3632813.7675781zM17.625 55.1748047c0-1.6757896.6826104-2.5136719 2.0478516-2.5136719.2148448 0 .3964836.0166014.5449218.0498047v.5742187c-.1484382-.0429689-.3203115-.0644531-.515625-.0644531-.4589866 0-.8037097.1230457-1.0341796.3691407-.23047.2460949-.3554687.6406222-.375 1.1835937h.0351562c.0917973-.1582039.2207023-.2807613.3867188-.3676758.1660164-.0869145.361327-.1303711.5859374-.1303711.3886739 0 .6914052.1191395.9082032.3574219.2167979.2382824.3251953.5615214.3251953.9697266 0 .449221-.125487.8041979-.3764649 1.0649414-.2509778.2607435-.5932595.3911133-1.0268554.3911133-.3066422 0-.5732411-.0737298-.7998047-.2211915-.2265636-.1474616-.4008783-.3623032-.5229492-.6445312-.122071-.282228-.1831055-.6215801-.1831055-1.0180664zm1.4941406 1.3154297c.2363293 0 .4184564-.0761711.5463867-.2285156.1279304-.1523446.1918946-.3701158.1918946-.6533204 0-.2460949-.060058-.4394524-.1801758-.5800781-.1201178-.1406257-.3002918-.2109375-.5405273-.2109375-.1484383 0-.2851557.031738-.4101563.0952149-.1250006.0634768-.2236325.15039-.2958984.2607421-.072266.1103522-.1083985.223144-.1083985.338379 0 .275392.0747063.5073232.2241211.6958007.1494148.1884775.3403309.2827149.5727539.2827149zm5.6015625-3.234375c-.4023457 0-.7187488.1425767-.9492187.4277344-.2304699.2851576-.3457032.6787084-.3457032 1.180664 0 .5253933.1108388.9228502.3325196 1.1923828.2216808.2695326.5424784.4042969.9624023.4042969.1816416 0 .3574211-.0180662.5273438-.0541992.1699227-.036133.3466787-.0825193.5302734-.1391602v.600586c-.3359392.1269537-.7167947.1904297-1.1425781.1904297-.6269563 0-1.1083968-.1899396-1.444336-.5698243-.3359391-.3798847-.5039062-.9233363-.5039062-1.6303711 0-.4453147.0815422-.8349592.2446289-1.1689453.1630868-.333986.3989242-.5898428.7075195-.7675781.3085953-.1777353.6708964-.2666016 1.0869141-.2666016.4375022 0 .841795.091796 1.2128906.2753907l-.2519531.5830078c-.144532-.0683597-.2973625-.1284177-.4584961-.1801758-.1611336-.0517581-.3305655-.0776367-.5083008-.0776367z" fill="#666"/>
    <path d="M11 5h18.5L8 42.5V8c0-2 1-3 3-3z" fill="url(#e)" opacity=".5"/>
  </g>
</svg>
