<svg width="32" height="32" viewBox="0 0 32 32" xmlns="http://www.w3.org/2000/svg">
  <defs>
    <linearGradient x1="50%" y1="0%" x2="50%" y2="100%" id="a">
      <stop stop-opacity="0" offset="0%"/>
      <stop offset="49.8447963%"/>
      <stop stop-opacity="0" offset="100%"/>
    </linearGradient>
    <radialGradient cx="0%" fx="0%" fy="50%" r="63.6829723%" id="b">
      <stop offset="0%"/>
      <stop stop-opacity="0" offset="100%"/>
    </radialGradient>
    <linearGradient x1="50%" y1="0%" x2="50%" y2="85.0368565%" id="c">
      <stop stop-color="#FFF" offset="0%"/>
      <stop stop-color="#F9F9F9" offset="100%"/>
    </linearGradient>
    <linearGradient x1="50%" y1="0%" x2="50%" y2="87.2130102%" id="d">
      <stop stop-color="#FFD787" offset="0%"/>
      <stop stop-color="#FFBF3F" offset="100%"/>
    </linearGradient>
    <linearGradient x1="50%" y1="2.37479907%" x2="50%" y2="98.5590721%" id="e">
      <stop stop-color="#FFF" stop-opacity=".4" offset="0%"/>
      <stop stop-color="#FFF" stop-opacity="0" offset="100%"/>
    </linearGradient>
  </defs>
  <g fill="none" fill-rule="evenodd">
    <path fill-opacity=".25" fill="url(#a)" d="M11 25h14v7H11z" transform="translate(-2)"/>
    <path fill-opacity=".25" fill="url(#b)" d="M25 25h11v7H25z" transform="translate(-2)"/>
    <path fill-opacity=".25" fill="url(#b)" transform="rotate(-180 4.5 28.5)" d="M0 25h11v7H0"/>
    <path d="M24 29.5H8c-2.5 0-3.5-1-3.5-3.5v-8h23v8c0 2.5-1 3.5-3.5 3.5z" fill="#F9F9F9"/>
    <path d="M24.5 30h-17c-2 0-3.5-1.5-3.5-3.5V18h24v8.5c0 2-1.5 3.5-3.5 3.5z" fill-opacity=".2" fill="#000"/>
    <path d="M10 18h16c2 0 3 1 3 3v8H7v-8c0-2 1-3 3-3z" fill="url(#c)" transform="rotate(-180 17 23.5)"/>
    <path d="M23.5 28h-15c-2 0-2.5-.5-2.5-2.5V18h20v7.5c0 2-.5 2.5-2.5 2.5z" fill="#F9F9F9"/>
    <path d="M8 4.5h16c2.5 0 3.5 1 3.5 3.5v10h-23V8c0-2.5 1-3.5 3.5-3.5z" fill="#FFBF3F"/>
    <path d="M7.5 4h17c2 0 3.5 1.5 3.5 3.5V18H4V7.5C4 5.5 5.5 4 7.5 4z" fill-opacity=".2" fill="#000"/>
    <path d="M10 5h16c2 0 3 1 3 3v10H7V8c0-2 1-3 3-3z" fill="url(#d)" transform="translate(-2)"/>
    <path d="M8.5 6h15c2 0 2.5.5 2.5 2.5V18H6V8.5C6 6.5 6.5 6 8.5 6z" fill="#FFBF3F"/>
    <path d="M8.7087235 21.7337536c0 .151294-.0383792.285621-.1151386.4029851-.0767595.117364-.1874472.208584-.3320664.2736627-.1446193.0650787-.3142662.0976175-.50894596.0976175-.16241854 0-.29869232-.0114025-.40882544-.0342078C7.233614 22.4510057 7.11903276 22.411236 7 22.3545008v-.5873737c.1257075.0645224.2564191.1148603.3921387.1510151.13571958.0361548.26031276.054232.37378324.054232.0978961 0 .16964843-.0169647.2152591-.0508946.04561066-.0339299.06841566-.0775932.06841566-.130991 0-.0333737-.0091776-.0625752-.0275331-.0876055-.0183555-.0250303-.04783516-.0503382-.0884398-.0759247-.04060463-.0255865-.14878933-.0778711-.32455733-.1568555-.15908117-.0723096-.27839026-.1423933-.35793084-.2102531-.0795406-.0678598-.13849986-.1457305-.17687958-.2336145-.03837972-.087884-.0575693-.1918971-.0575693-.3120423 0-.224716.08176427-.3999252.24529527-.5256327C7.42551302 20.0628528 7.6502257 20 7.93612682 20c.25252748 0 .51005708.058403.77259668.1752109l-.2019097.508946c-.2280535-.1045709-.4249552-.1568555-.59071108-.1568555-.0856591 0-.14795568.0150179-.18689163.0450542-.03893597.0300363-.05840366.067303-.05840366.1118013 0 .0478356.02475177.0906645.07425605.128488.04950427.0378234.1838313.1067947.4029851.2069157.2102541.0945587.3562617.1960688.4380272.3045332.0817655.1084645.1226477.2450163.1226477.4096598zm3.0119588.7408918h-.7792713l-.2336146-1.0629461c-.0111245-.0444983-.0286455-.1329372-.0525632-.2653194-.0239178-.1323822-.0414388-.2430699-.0525633-.3320664-.0088997.0723096-.0233614.1621391-.0433856.2694911-.0200242.107352-.03977.2060809-.0592379.2961898-.019468.090109-.100398.454989-.2427923 1.094651h-.7792713l-.6040605-2.4396032h.6357653l.2653194 1.2231389c.0600726.2703268.1012328.4855837.1234819.6457774.0144619-.1134705.0403262-.2675433.0775934-.4622231.0372673-.1946797.072031-.3559834.1042922-.4839158l.2152591-.9227774h.6107352l.2085844.9227774c.0355986.1479566.0717528.318716.1084639.5122833.036711.1935673.0611847.3381844.0734217.4338556.0144619-.1234826.0539535-.3376271.1184759-.64244l.2703254-1.2264763h.6357653l-.6007231 2.4396032zm2.2760731 0l-.1201447-.457217H13.08399l-.123482.457217h-.724205l.7959581-2.4496153h.8793918l.8059702 2.4496153h-.7208677zm-.256976-.9978678l-.1051266-.4004821c-.024474-.0889964-.0542317-.2041339-.0892741-.3454157-.0350424-.1412819-.0581255-.2425139-.06925-.3036989-.0100121.0567352-.0297579.1501801-.059238.2803374s-.0948359.3865745-.1960693.7692593h.518958zm2.0791693.9978678h-.6591267v-1.9006211h-.5957171v-.5389821h1.8488922v.5389821h-.5940484v1.9006211zm1.9606935-1.9339946c-.1568563 0-.2792246.0642433-.3671086.192732-.087884.1284886-.1318253.3056445-.1318253.531473 0 .4694564.1785464.704181.5356447.704181.1079082 0 .2124775-.0150179.313711-.0450542.1012334-.0300363.2030216-.0661906.3053675-.1084639v.5573375c-.2035794.0901089-.4338542.1351627-.6908315.1351627-.3682229 0-.6505043-.1067941-.8468527-.3203856-.1963484-.2135915-.2945212-.5222934-.2945212-.9261148 0-.2525275.0475568-.474459.1426717-.6658014.095115-.1913424.231945-.3384625.4104942-.4413646C17.3349411 20.0514503 17.544914 20 17.7863169 20c.263652 0 .5156194.0572906.7559099.1718736l-.2019098.518958c-.0901089-.0422734-.1802164-.0778714-.2703253-.1067953-.090109-.0289238-.1868912-.0433855-.2903495-.0433855zm3.2222119 1.9339946H20.33939v-.9945304h-.7659219v.9945304h-.6624641v-2.4396032h.6624641v.904422h.7659219v-.904422h.6624641v2.4396032zm1.9757115 0h-1.4484101v-2.4396032h1.4484101v.52897h-.7892834v.3837953h.7308798v.5289701h-.7308798v.4605544h.7892834v.5373134zM25 21.7337536c0 .151294-.0383791.285621-.1151386.4029851-.0767594.117364-.1874471.208584-.3320664.2736627-.1446192.0650787-.3142662.0976175-.5089459.0976175-.1624186 0-.2986923-.0114025-.4088255-.0342078-.1101331-.0228054-.2247143-.0625751-.3437471-.1193103v-.5873737c.1257075.0645224.2564191.1148603.3921387.1510151.1357196.0361548.2603128.054232.3737833.054232.0978961 0 .1696484-.0169647.2152591-.0508946.0456107-.0339299.0684157-.0775932.0684157-.130991 0-.0333737-.0091776-.0625752-.0275332-.0876055-.0183555-.0250303-.0478351-.0503382-.0884398-.0759247-.0406046-.0255865-.1487893-.0778711-.3245573-.1568555-.1590812-.0723096-.2783903-.1423933-.3579308-.2102531-.0795406-.0678598-.1384999-.1457305-.1768796-.2336145-.0383797-.087884-.0575693-.1918971-.0575693-.3120423 0-.224716.0817643-.3999252.2452953-.5256327C23.7167895 20.0628528 23.9415022 20 24.2274034 20c.2525274 0 .510057.058403.7725966.1752109l-.2019097.508946c-.2280534-.1045709-.4249551-.1568555-.590711-.1568555-.0856591 0-.1479557.0150179-.1868917.0450542-.0389359.0300363-.0584036.067303-.0584036.1118013 0 .0478356.0247518.0906645.074256.128488.0495043.0378234.1838313.1067947.4029851.2069157.2102541.0945587.3562618.1960688.4380273.3045332.0817655.1084645.1226476.2450163.1226476.4096598z" fill="#333"/>
    <path d="M8.0400704 26.4639367h-.39044178v-1.5684129c0-.1871914.0044305-.3356132.01329163-.4452697-.02547576.0265834-.05676617.0559355-.09387217.0880571-.037106.0321216-.1614369.1340231-.37299648.3057076L7 24.5964621l.71442533-.5615716h.32564507v2.4290462zm2.3509577-1.8707975c0 .1539622-.0448588.2821698-.1345777.3846266-.089719.1024569-.2159883.1714066-.3788116.2068511v.0132916c.1949449.0243681.3411514.0850106.4386239.1819293.0974725.0969186.146208.22568.146208.3862881 0 .2337124-.0825181.4139784-.2475567.5408033-.1650386.126825-.3998551.1902366-.7044566.1902366-.2691569 0-.4962201-.0437512-.6811963-.1312549v-.347244c.1030107.0509515.2121118.0902722.3273065.1179633.1151948.027691.2259573.0415363.3322909.0415363.1882991 0 .3289675-.0348902.4220094-.1046716.0930419-.0697814.1395621-.1777749.1395621-.3239836 0-.129594-.0515045-.2248498-.1545152-.2857701-.1030107-.0609203-.264724-.09138-.4851447-.09138h-.2110047v-.3173377h.2143276c.3876746 0 .581509-.1340227.581509-.402072 0-.1041183-.0337825-.1844211-.1013487-.2409108-.0675661-.0564898-.1672524-.0847342-.2990617-.0847342-.0919343 0-.1805443.0130146-.2658327.0390442-.0852884.0260295-.1860823.0767034-.3023847.152023l-.1910672-.2724785C9.0585429 24.0819643 9.3171734 24 9.6118061 24c.2447888 0 .4358541.0526122.5732017.1578382.1373476.1052259.2060203.2503248.2060203.435301zm.3937647.8357115c0-.9503566.387115-1.4255278 1.1613565-1.4255278.1218406 0 .2248498.0094148.3090305.0282447v.3256451c-.0841807-.0243682-.1816518-.036552-.2924159-.036552-.2602958 0-.4557917.0697804-.5864934.2093432-.1307017.1395629-.2015897.3633031-.2126661.6712275h.0199374c.0520592-.0897189.1251624-.1592224.219312-.2085125.0941495-.04929.204912-.0739347.3322908-.0739347.2204207 0 .3921026.0675651.5150509.2026974.1229482.1351323.1844214.3184443.1844214.5499414 0 .2547576-.0711649.4560684-.2134969.6039386-.1423319.1478702-.3364432.2218042-.5823397.2218042-.1738998 0-.3250906-.0418129-.453577-.1254398-.1284865-.083627-.227342-.2054658-.2965696-.36552s-.1038409-.3525041-.1038409-.5773553zm.8473417.7459929c.1340246 0 .2373107-.0431974.3098612-.1295934.0725505-.0863961.1088253-.2098963.1088253-.3705043 0-.1395629-.0340595-.2492177-.1021795-.3289679-.0681199-.0797503-.1702984-.1196248-.3065383-.1196248-.0841808 0-.1617145.017999-.2326036.0539973-.0708891.0359984-.1268241.0852877-.1678069.1478694-.0409827.0625818-.0614738.1265471-.0614738.191898 0 .1561775.0423667.287708.1271013.3945954.0847346.1068874.1930049.1603303.3248143.1603303zm3.1767005-1.8342455c-.2281742 0-.4076094.0808567-.5383112.2425723-.1307017.1617157-.1960516.3849022-.1960516.6695661 0 .2979556.0628578.5233573.1885751.6762119.1257173.1528546.3076448.2292807.5457877.2292807.1030107 0 .202697-.0102455.2990618-.0307369s.1966049-.0467975.3007232-.0789191v.3405981c-.1905144.0719967-.4065013.1079946-.6479671.1079946-.355553 0-.6285826-.1077166-.819097-.3231529-.1905144-.2154363-.2857701-.523633-.2857701-.9245993 0-.2525423.0462433-.4735135.1387314-.6629202.0924881-.1894068.2262338-.3345057.4012412-.4353011C14.3707658 24.0503969 14.5762303 24 14.8121579 24c.2481118 0 .4773902.0520584.6878421.1561767l-.1428851.3306294c-.0819655-.0387675-.1686371-.0728269-.2600176-.1021794-.0913804-.0293525-.1874669-.0440286-.2882623-.0440286z" fill="#666"/>
    <path d="M10 5h8L7 16.6511628V8c0-2 1-3 3-3z" fill="url(#e)" opacity=".5" transform="translate(-2)"/>
  </g>
</svg>
