<?xml version="1.0" encoding="UTF-8"?>
<svg width="128px" height="128px" viewBox="0 0 128 128" version="1.1" xmlns="http://www.w3.org/2000/svg" xmlns:xlink="http://www.w3.org/1999/xlink">
    <!-- Generator: Sketch 41 (35326) - http://www.bohemiancoding.com/sketch -->
    <title>128</title>
    <desc>Created with Sketch.</desc>
    <defs>
        <linearGradient x1="50%" y1="0%" x2="50%" y2="100%" id="linearGradient-1">
            <stop stop-color="#000000" stop-opacity="0" offset="0%"></stop>
            <stop stop-color="#000000" offset="49.8447963%"></stop>
            <stop stop-color="#000000" stop-opacity="0" offset="100%"></stop>
        </linearGradient>
        <radialGradient cx="0%" cy="50%" fx="0%" fy="50%" r="63.6829723%" id="radialGradient-2">
            <stop stop-color="#000000" offset="0%"></stop>
            <stop stop-color="#000000" stop-opacity="0" offset="100%"></stop>
        </radialGradient>
        <linearGradient x1="50%" y1="0%" x2="50%" y2="85.0368565%" id="linearGradient-3">
            <stop stop-color="#FFFFFF" offset="0%"></stop>
            <stop stop-color="#F9F9F9" offset="100%"></stop>
        </linearGradient>
        <linearGradient x1="50%" y1="0%" x2="50%" y2="87.2130102%" id="linearGradient-4">
            <stop stop-color="#FFD787" offset="0%"></stop>
            <stop stop-color="#FFBF3F" offset="100%"></stop>
        </linearGradient>
        <linearGradient x1="50%" y1="2.37479907%" x2="50%" y2="98.5590721%" id="linearGradient-5">
            <stop stop-color="#FFFFFF" stop-opacity="0.4" offset="0%"></stop>
            <stop stop-color="#FFFFFF" stop-opacity="0" offset="100%"></stop>
        </linearGradient>
    </defs>
    <g id="Page-1" stroke="none" stroke-width="1" fill="none" fill-rule="evenodd">
        <g id="128">
            <rect id="shadow-center" fill-opacity="0.25" fill="url(#linearGradient-1)" x="29" y="106.758621" width="70" height="14.2413793"></rect>
            <rect id="shadow-right" fill-opacity="0.25" fill="url(#radialGradient-2)" x="99" y="106.758621" width="22" height="14.2413793"></rect>
            <rect id="shadow-left" fill-opacity="0.25" fill="url(#radialGradient-2)" transform="translate(18.000000, 113.879310) rotate(-180.000000) translate(-18.000000, -113.879310) " x="7" y="106.758621" width="22" height="14.2413793"></rect>
            <path d="M26.5744681,87 C31.6276596,87 96.3723404,87 101.425532,87 C106.478723,87 108.5,89.1034483 108.5,94.362069 C108.5,99.6206897 108.5,116.5 108.5,116.5 L19.5,116.5 C19.5,116.5 19.5,99.6206897 19.5,94.362069 C19.5,89.1034483 21.5212766,87 26.5744681,87 Z" id="bottom-back-outline-copy" fill="#F9F9F9" transform="translate(64.000000, 101.750000) rotate(-180.000000) translate(-64.000000, -101.750000) "></path>
            <path d="M26,87 C54.0021601,87 98,87 102,87 C106,87 109,90.0517241 109,94.1206897 L109,116.931034 L19,116.931034 L19,94.1206897 C19,90.0517241 22,87 26,87 Z" id="bottom-outline" fill-opacity="0.2" fill="#000000" transform="translate(64.000000, 101.965517) rotate(-180.000000) translate(-64.000000, -101.965517) "></path>
            <path d="M26.1304348,87 C54.7413374,87 97.7826087,87 101.869565,87 C105.956522,87 108,89.1428571 108,93.4285714 L108,116 L20,116 C20,116 20,97.7142857 20,93.4285714 C20,89.1428571 22.0434783,87 26.1304348,87 Z" id="bottom-highlight" fill="url(#linearGradient-3)" transform="translate(64.000000, 101.500000) rotate(-180.000000) translate(-64.000000, -101.500000) "></path>
            <path d="M26.2272727,87 C30.4090909,87 97.5909091,87 101.772727,87 C105.954545,87 107,88.1153846 107,92.5769231 L107,115 L21,115 C21,115 21,97.0384615 21,92.5769231 C21,88.1153846 22.0454545,87 26.2272727,87 Z" id="bottom-fill" fill="#F9F9F9" transform="translate(64.000000, 101.000000) rotate(-180.000000) translate(-64.000000, -101.000000) "></path>
            <path d="M26.5744681,13.5 C31.6276596,13.5 96.3723404,13.5 101.425532,13.5 C106.478723,13.5 108.5,15.537037 108.5,20.6296296 L108.5,87 L19.5,87 L19.5,20.6296296 C19.5,15.537037 21.5212766,13.5 26.5744681,13.5 Z" id="top-back-outline" fill="#FFBF3F"></path>
            <path d="M25.5,13 C29.5,13 98.5,13 102.5,13 C106.5,13 109,15.4310345 109,19.5 L109,87 L19,87 L19,19.5 C19,15.4310345 21.5,13 25.5,13 Z" id="top-outline" fill-opacity="0.2" fill="#000000"></path>
            <path d="M26.1304348,14.0344828 C54.7413374,14.0344828 97.7826087,14.0344828 101.869565,14.0344828 C105.956522,14.0344828 108,16.0689655 108,20.137931 L108,87 L20,87 L20,20.137931 C20,16.0689655 22.0434783,14.0344828 26.1304348,14.0344828 Z" id="top-highlight" fill="url(#linearGradient-4)"></path>
            <path d="M26.2272727,15.0689655 C30.4090909,15.0689655 97.5909091,15.0689655 101.772727,15.0689655 C105.954545,15.0689655 107,16.0862069 107,20.1551724 L107,87 L21,87 L21,20.1551724 C21,16.0862069 22.0454545,15.0689655 26.2272727,15.0689655 Z" id="top-fill" fill="#FFBF3F"></path>
            <path d="M31,97.0878906 C31,97.6191433 30.8652357,98.0908183 30.5957031,98.5029297 C30.3261705,98.9150411 29.9375025,99.2353504 29.4296875,99.4638672 C28.9218725,99.692384 28.3261753,99.8066406 27.6425781,99.8066406 C27.0722628,99.8066406 26.5937519,99.766602 26.2070312,99.6865234 C25.8203106,99.6064449 25.4179708,99.4667979 25,99.2675781 L25,97.2050781 C25.4414085,97.4316418 25.9003882,97.6083978 26.3769531,97.7353516 C26.853518,97.8623053 27.2910136,97.9257812 27.6894531,97.9257812 C28.0332048,97.9257812 28.2851554,97.8662115 28.4453125,97.7470703 C28.6054696,97.6279291 28.6855469,97.4746103 28.6855469,97.2871094 C28.6855469,97.1699213 28.6533206,97.0673833 28.5888672,96.9794922 C28.5244137,96.8916011 28.4208992,96.8027348 28.2783203,96.7128906 C28.1357415,96.6230464 27.7558625,96.4394545 27.1386719,96.1621094 C26.5800753,95.9082019 26.1611342,95.6621106 25.8818359,95.4238281 C25.6025377,95.1855457 25.3955085,94.9121109 25.2607422,94.6035156 C25.1259759,94.2949203 25.0585938,93.9296896 25.0585938,93.5078125 C25.0585938,92.7187461 25.3457003,92.1035178 25.9199219,91.6621094 C26.4941435,91.2207009 27.2831981,91 28.2871094,91 C29.1738326,91 30.0781204,91.2050761 31,91.6152344 L30.2910156,93.4023438 C29.4902304,93.0351544 28.798831,92.8515625 28.2167969,92.8515625 C27.9160141,92.8515625 27.6972663,92.9042963 27.5605469,93.0097656 C27.4238274,93.1152349 27.3554688,93.246093 27.3554688,93.4023438 C27.3554688,93.5703133 27.4423819,93.7207025 27.6162109,93.8535156 C27.7900399,93.9863288 28.2617149,94.2285139 29.03125,94.5800781 C29.7695349,94.912111 30.2822251,95.2685528 30.5693359,95.6494141 C30.8564467,96.0302753 31,96.5097627 31,97.0878906 Z M41.5761719,99.6894531 L38.8398438,99.6894531 L38.0195312,95.9570312 C37.9804686,95.8007805 37.9189457,95.4902367 37.8349609,95.0253906 C37.7509761,94.5605446 37.6894533,94.1718766 37.6503906,93.859375 C37.6191405,94.1132825 37.5683597,94.4287091 37.4980469,94.8056641 C37.427734,95.1826191 37.3583988,95.5292953 37.2900391,95.8457031 C37.2216793,96.162111 36.9375025,97.4433481 36.4375,99.6894531 L33.7011719,99.6894531 L31.5800781,91.1230469 L33.8125,91.1230469 L34.7441406,95.4179688 C34.9550792,96.3671922 35.099609,97.1230441 35.1777344,97.6855469 C35.2285159,97.2871074 35.3193353,96.7460972 35.4501953,96.0625 C35.5810553,95.3789028 35.7031244,94.8125022 35.8164062,94.3632812 L36.5722656,91.1230469 L38.7167969,91.1230469 L39.4492188,94.3632812 C39.5742194,94.8828151 39.7011712,95.4824185 39.8300781,96.1621094 C39.958985,96.8418003 40.0449217,97.3496077 40.0878906,97.6855469 C40.1386721,97.251951 40.2773426,96.5000054 40.5039062,95.4296875 L41.453125,91.1230469 L43.6855469,91.1230469 L41.5761719,99.6894531 Z M49.5683594,99.6894531 L49.1464844,98.0839844 L46.3632812,98.0839844 L45.9296875,99.6894531 L43.3867188,99.6894531 L46.1816406,91.0878906 L49.2695312,91.0878906 L52.0996094,99.6894531 L49.5683594,99.6894531 Z M48.6660156,96.1855469 L48.296875,94.7792969 C48.2109371,94.4667953 48.1064459,94.0625025 47.9833984,93.5664062 C47.8603509,93.07031 47.7792971,92.7148448 47.7402344,92.5 C47.7050779,92.6992197 47.6357427,93.0273415 47.5322266,93.484375 C47.4287104,93.9414085 47.1992205,94.8417902 46.84375,96.1855469 L48.6660156,96.1855469 Z M55.9667969,99.6894531 L53.6523438,99.6894531 L53.6523438,93.015625 L51.5605469,93.015625 L51.5605469,91.1230469 L58.0527344,91.1230469 L58.0527344,93.015625 L55.9667969,93.015625 L55.9667969,99.6894531 Z M62.8515625,92.8984375 C62.3007785,92.8984375 61.8710953,93.1240212 61.5625,93.5751953 C61.2539047,94.0263694 61.0996094,94.6484335 61.0996094,95.4414062 C61.0996094,97.089852 61.7265562,97.9140625 62.9804688,97.9140625 C63.3593769,97.9140625 63.7265607,97.8613287 64.0820312,97.7558594 C64.4375018,97.6503901 64.7949201,97.5234382 65.1542969,97.375 L65.1542969,99.3320312 C64.4394496,99.6484391 63.6308639,99.8066406 62.7285156,99.8066406 C61.4355404,99.8066406 60.4443394,99.4316444 59.7548828,98.6816406 C59.0654262,97.9316369 58.7207031,96.8476633 58.7207031,95.4296875 C58.7207031,94.5429643 58.8876936,93.7636752 59.2216797,93.0917969 C59.5556657,92.4199185 60.0361297,91.9033221 60.6630859,91.5419922 C61.2900422,91.1806623 62.0273395,91 62.875,91 C63.8007859,91 64.6855427,91.2011699 65.5292969,91.6035156 L64.8203125,93.4257812 C64.5039047,93.277343 64.1875016,93.1523443 63.8710938,93.0507812 C63.5546859,92.9492182 63.2148456,92.8984375 62.8515625,92.8984375 Z M74.1660156,99.6894531 L71.8398438,99.6894531 L71.8398438,96.1972656 L69.1503906,96.1972656 L69.1503906,99.6894531 L66.8242188,99.6894531 L66.8242188,91.1230469 L69.1503906,91.1230469 L69.1503906,94.2988281 L71.8398438,94.2988281 L71.8398438,91.1230469 L74.1660156,91.1230469 L74.1660156,99.6894531 Z M81.1035156,99.6894531 L76.0175781,99.6894531 L76.0175781,91.1230469 L81.1035156,91.1230469 L81.1035156,92.9804688 L78.3320312,92.9804688 L78.3320312,94.328125 L80.8984375,94.328125 L80.8984375,96.1855469 L78.3320312,96.1855469 L78.3320312,97.8027344 L81.1035156,97.8027344 L81.1035156,99.6894531 Z M88.2050781,97.0878906 C88.2050781,97.6191433 88.0703138,98.0908183 87.8007812,98.5029297 C87.5312487,98.9150411 87.1425807,99.2353504 86.6347656,99.4638672 C86.1269506,99.692384 85.5312534,99.8066406 84.8476562,99.8066406 C84.2773409,99.8066406 83.7988301,99.766602 83.4121094,99.6865234 C83.0253887,99.6064449 82.623049,99.4667979 82.2050781,99.2675781 L82.2050781,97.2050781 C82.6464866,97.4316418 83.1054664,97.6083978 83.5820312,97.7353516 C84.0585961,97.8623053 84.4960918,97.9257812 84.8945312,97.9257812 C85.238283,97.9257812 85.4902336,97.8662115 85.6503906,97.7470703 C85.8105477,97.6279291 85.890625,97.4746103 85.890625,97.2871094 C85.890625,97.1699213 85.8583988,97.0673833 85.7939453,96.9794922 C85.7294919,96.8916011 85.6259773,96.8027348 85.4833984,96.7128906 C85.3408196,96.6230464 84.9609406,96.4394545 84.34375,96.1621094 C83.7851535,95.9082019 83.3662123,95.6621106 83.0869141,95.4238281 C82.8076158,95.1855457 82.6005866,94.9121109 82.4658203,94.6035156 C82.331054,94.2949203 82.2636719,93.9296896 82.2636719,93.5078125 C82.2636719,92.7187461 82.5507784,92.1035178 83.125,91.6621094 C83.6992216,91.2207009 84.4882762,91 85.4921875,91 C86.3789107,91 87.2831985,91.2050761 88.2050781,91.6152344 L87.4960938,93.4023438 C86.6953085,93.0351544 86.0039092,92.8515625 85.421875,92.8515625 C85.1210922,92.8515625 84.9023444,92.9042963 84.765625,93.0097656 C84.6289056,93.1152349 84.5605469,93.246093 84.5605469,93.4023438 C84.5605469,93.5703133 84.6474601,93.7207025 84.8212891,93.8535156 C84.9951181,93.9863288 85.466793,94.2285139 86.2363281,94.5800781 C86.9746131,94.912111 87.4873033,95.2685528 87.7744141,95.6494141 C88.0615249,96.0302753 88.2050781,96.5097627 88.2050781,97.0878906 Z" id="SWATCHES" fill="#333333"></path>
            <path d="M28.6708366,111.696247 L27.2928069,111.696247 L27.2928069,106.160672 C27.2928069,105.499997 27.3084439,104.976155 27.3397185,104.589132 C27.2498041,104.682956 27.1393673,104.786551 27.008405,104.899922 C26.8774427,105.013292 26.4386277,105.372945 25.6919468,105.97889 L25,105.10516 L27.5215012,103.123143 L28.6708366,103.123143 L28.6708366,111.696247 Z M36.9683346,105.093432 C36.9683346,105.636828 36.8100094,106.089326 36.4933542,106.450938 C36.176699,106.812551 35.7310427,107.055902 35.1563722,107.181001 L35.1563722,107.227912 C35.8444131,107.313918 36.3604361,107.52795 36.7044566,107.870016 C37.0484771,108.212081 37.2204848,108.666534 37.2204848,109.233385 C37.2204848,110.058253 36.9292445,110.694486 36.3467553,111.142103 C35.764266,111.589721 34.9355019,111.813526 33.8604378,111.813526 C32.9104722,111.813526 32.1090728,111.65911 31.4562158,111.350274 L31.4562158,110.124707 C31.8197829,110.304536 32.2048455,110.443315 32.6114152,110.541048 C33.0179848,110.638781 33.4089113,110.687647 33.7842064,110.687647 C34.4487914,110.687647 34.9452681,110.564505 35.2736513,110.318217 C35.6020345,110.07193 35.7662236,109.690777 35.7662236,109.174746 C35.7662236,108.717355 35.5844428,108.381158 35.2208757,108.166145 C34.8573086,107.951133 34.2865559,107.843628 33.5086005,107.843628 L32.763878,107.843628 L32.763878,106.723612 L33.5203284,106.723612 C34.8885917,106.723612 35.5727131,106.250591 35.5727131,105.304535 C35.5727131,104.937058 35.4534805,104.653637 35.2150117,104.454261 C34.976543,104.254886 34.6247091,104.155199 34.1594996,104.155199 C33.8350257,104.155199 33.5222845,104.201133 33.2212666,104.293002 C32.9202487,104.384871 32.5645056,104.56372 32.1540266,104.829554 L31.4796716,103.867866 C32.2654457,103.289286 33.1782591,103 34.2181392,103 C35.0820997,103 35.7564479,103.18569 36.2412041,103.557076 C36.7259602,103.928462 36.9683346,104.440575 36.9683346,105.093432 Z M38.3580923,108.043002 C38.3580923,104.688803 39.7243804,103.011728 42.4569977,103.011728 C42.8870233,103.011728 43.2505849,103.044957 43.5476935,103.111415 L43.5476935,104.260751 C43.2505849,104.174745 42.9065696,104.131744 42.5156372,104.131744 C41.5969461,104.131744 40.9069609,104.378027 40.4456607,104.870602 C39.9843605,105.363177 39.7341675,106.152848 39.6950743,107.23964 L39.7654418,107.23964 C39.94918,106.922985 40.2071915,106.677679 40.539484,106.503714 C40.8717765,106.329749 41.262703,106.242768 41.7122752,106.242768 C42.4902306,106.242768 43.0961667,106.481233 43.5301016,106.95817 C43.9640366,107.435108 44.1810008,108.082091 44.1810008,108.89914 C44.1810008,109.798284 43.9298305,110.508793 43.4274824,111.030688 C42.9251343,111.552583 42.2400356,111.813526 41.3721658,111.813526 C40.7584019,111.813526 40.2247873,111.665951 39.7713057,111.370797 C39.3178242,111.075644 38.9689223,110.645624 38.7245895,110.080727 C38.4802568,109.51583 38.3580923,108.836595 38.3580923,108.043002 Z M41.3487099,110.675919 C41.8217381,110.675919 42.1862771,110.523457 42.4423378,110.21853 C42.6983985,109.913603 42.8264269,109.47772 42.8264269,108.910868 C42.8264269,108.418293 42.706217,108.031276 42.4657936,107.749805 C42.2253702,107.468333 41.8647405,107.3276 41.3838937,107.3276 C41.0867851,107.3276 40.8131365,107.391125 40.5629398,107.518178 C40.3127431,107.645231 40.1153252,107.819194 39.9706802,108.04007 C39.8260352,108.260947 39.7537138,108.486707 39.7537138,108.717357 C39.7537138,109.268572 39.9032432,109.732797 40.2023065,110.110047 C40.5013698,110.487297 40.8835004,110.675919 41.3487099,110.675919 Z M52.5605942,104.202111 C51.7552735,104.202111 51.1219726,104.487487 50.6606724,105.058249 C50.1993722,105.62901 49.9687256,106.416727 49.9687256,107.421423 C49.9687256,108.473031 50.1905764,109.268566 50.6342846,109.808053 C51.0779928,110.34754 51.7200896,110.617279 52.5605942,110.617279 C52.9241613,110.617279 53.2759952,110.581118 53.6161063,110.508796 C53.9562175,110.436473 54.310006,110.343628 54.6774824,110.230258 L54.6774824,111.432369 C54.0050787,111.686475 53.242772,111.813526 52.3905395,111.813526 C51.1356466,111.813526 50.1720127,111.43335 49.4996091,110.672987 C48.8272054,109.912623 48.4910086,108.82487 48.4910086,107.409695 C48.4910086,106.518369 48.6542204,105.738471 48.9806489,105.069977 C49.3070775,104.401482 49.7791212,103.889368 50.3967944,103.53362 C51.0144675,103.177872 51.7396362,103 52.5723221,103 C53.4480106,103 54.2572285,103.183735 55,103.551212 L54.4956998,104.718139 C54.2064098,104.581313 53.9005098,104.461103 53.5779906,104.357506 C53.2554714,104.253909 52.9163427,104.202111 52.5605942,104.202111 Z" id="136-C" fill="#666666"></path>
            <path d="M26,14 L63,14 L20,80 L20,47 L20,20 C20,16 22,14 26,14 Z" id="glare" fill="url(#linearGradient-5)" opacity="0.5"></path>
        </g>
    </g>
</svg>