<?xml version="1.0" encoding="UTF-8"?>
<svg width="32px" height="32px" viewBox="0 0 32 32" version="1.1" xmlns="http://www.w3.org/2000/svg" xmlns:xlink="http://www.w3.org/1999/xlink">
    <!-- Generator: Sketch 41 (35326) - http://www.bohemiancoding.com/sketch -->
    <title>32</title>
    <desc>Created with Sketch.</desc>
    <defs>
        <linearGradient x1="50%" y1="0%" x2="50%" y2="100%" id="linearGradient-1">
            <stop stop-color="#000000" stop-opacity="0" offset="0%"></stop>
            <stop stop-color="#000000" offset="49.8447963%"></stop>
            <stop stop-color="#000000" stop-opacity="0" offset="100%"></stop>
        </linearGradient>
        <radialGradient cx="0%" cy="50%" fx="0%" fy="50%" r="63.6829723%" id="radialGradient-2">
            <stop stop-color="#000000" offset="0%"></stop>
            <stop stop-color="#000000" stop-opacity="0" offset="100%"></stop>
        </radialGradient>
        <linearGradient x1="50%" y1="0%" x2="50%" y2="85.0368565%" id="linearGradient-3">
            <stop stop-color="#FFFFFF" offset="0%"></stop>
            <stop stop-color="#F9F9F9" offset="100%"></stop>
        </linearGradient>
        <linearGradient x1="50%" y1="0%" x2="50%" y2="87.2130102%" id="linearGradient-4">
            <stop stop-color="#FFD787" offset="0%"></stop>
            <stop stop-color="#FFBF3F" offset="100%"></stop>
        </linearGradient>
        <linearGradient x1="50%" y1="2.37479907%" x2="50%" y2="98.5590721%" id="linearGradient-5">
            <stop stop-color="#FFFFFF" stop-opacity="0.4" offset="0%"></stop>
            <stop stop-color="#FFFFFF" stop-opacity="0" offset="100%"></stop>
        </linearGradient>
    </defs>
    <g id="Page-1" stroke="none" stroke-width="1" fill="none" fill-rule="evenodd">
        <g id="32" transform="translate(-2.000000, 0.000000)">
            <rect id="shadow-center" fill-opacity="0.25" fill="url(#linearGradient-1)" x="11" y="25" width="14" height="7"></rect>
            <rect id="shadow-right" fill-opacity="0.25" fill="url(#radialGradient-2)" x="25" y="25" width="11" height="7"></rect>
            <polygon id="shadow-left" fill-opacity="0.25" fill="url(#radialGradient-2)" transform="translate(5.500000, 28.500000) rotate(-180.000000) translate(-5.500000, -28.500000) " points="-3.55271368e-15 25 11 25 11 32 8.8817842e-15 32"></polygon>
            <path d="M10,18 C12.5,18 23.5,18 26,18 C28.5,18 29.5,19 29.5,21.5 C29.5,24 29.5,29.5 29.5,29.5 L6.5,29.5 C6.5,29.5 6.5,24 6.5,21.5 C6.5,19 7.5,18 10,18 Z" id="bottom-back-outline-copy" fill="#F9F9F9" transform="translate(18.000000, 23.750000) rotate(-180.000000) translate(-18.000000, -23.750000) "></path>
            <path d="M9.5,18 C23.50108,18 24.5,18 26.5,18 C28.5,18 30,19.5 30,21.5 C30,23.5 30,30 30,30 L6,30 C6,30 6,23.5 6,21.5 C6,19.5 7.5,18 9.5,18 Z" id="bottom-outline" fill-opacity="0.2" fill="#000000" transform="translate(18.000000, 24.000000) rotate(-180.000000) translate(-18.000000, -24.000000) "></path>
            <path d="M10,18 L26,18 C28,18 29,19 29,21 C29,23 29,29 29,29 L7,29 C7,29 7,23 7,21 C7,19 8,18 10,18 Z" id="bottom-highlight" fill="url(#linearGradient-3)" transform="translate(18.000000, 23.500000) rotate(-180.000000) translate(-18.000000, -23.500000) "></path>
            <path d="M10.5,18 C12.5,18 23.5,18 25.5,18 C27.5,18 28,18.5 28,20.5 C28,22.5 28,28 28,28 L8,28 C8,28 8,22.5 8,20.5 C8,18.5 8.5,18 10.5,18 Z" id="bottom-fill" fill="#F9F9F9" transform="translate(18.000000, 23.000000) rotate(-180.000000) translate(-18.000000, -23.000000) "></path>
            <path d="M10,4.5 C12.5,4.5 23.5,4.5 26,4.5 C28.5,4.5 29.5,5.5 29.5,8 C29.5,10.5 29.5,18 29.5,18 L6.5,18 L6.5,8 C6.5,5.5 7.5,4.5 10,4.5 Z" id="top-back-outline" fill="#FFBF3F"></path>
            <path d="M9.5,4 C23.50108,4 24.5,4 26.5,4 C28.5,4 30,5.5 30,7.5 L30,18 L6,18 L6,7.5 C6,5.5 7.5,4 9.5,4 Z" id="top-outline" fill-opacity="0.2" fill="#000000"></path>
            <path d="M10,5 C24.00108,5 24,5 26,5 C28,5 29,6 29,8 L29,18 L7,18 L7,8 C7,6 8,5 10,5 Z" id="top-highlight" fill="url(#linearGradient-4)"></path>
            <path d="M10.5,6 C12.5,6 23.5,6 25.5,6 C27.5,6 28,6.5 28,8.5 L28,18 L8,18 L8,8.5 C8,6.5 8.5,6 10.5,6 Z" id="top-fill" fill="#FFBF3F"></path>
            <path d="M10.7087235,21.7337536 C10.7087235,21.8850476 10.6703443,22.0193746 10.5935849,22.1367387 C10.5168254,22.2541027 10.4061377,22.3453227 10.2615185,22.4104014 C10.1168992,22.4754801 9.94725229,22.5080189 9.75257254,22.5080189 C9.590154,22.5080189 9.45388022,22.4966164 9.3437471,22.4738111 C9.23361399,22.4510057 9.11903276,22.411236 9,22.3545008 L9,21.7671271 C9.1257075,21.8316495 9.25641909,21.8819874 9.39213869,21.9181422 C9.52785828,21.954297 9.65245146,21.9723742 9.76592194,21.9723742 C9.86381805,21.9723742 9.93557037,21.9554095 9.98118105,21.9214796 C10.0267917,21.8875497 10.0495967,21.8438864 10.0495967,21.7904886 C10.0495967,21.7571149 10.0404191,21.7279134 10.0220636,21.7028831 C10.0037081,21.6778528 9.97422844,21.6525449 9.93362381,21.6269584 C9.89301917,21.6013719 9.78483447,21.5490873 9.60906647,21.4701029 C9.4499853,21.3977933 9.33067621,21.3277096 9.25113563,21.2598498 C9.17159504,21.19199 9.11263577,21.1141193 9.07425605,21.0262353 C9.03587633,20.9383513 9.01668675,20.8343382 9.01668675,20.714193 C9.01668675,20.489477 9.09845102,20.3142678 9.26198202,20.1885603 C9.42551301,20.0628528 9.6502257,20 9.93612682,20 C10.1886543,20 10.4461839,20.058403 10.7087235,20.1752109 L10.5068138,20.6841569 C10.2787603,20.579586 10.0818586,20.5273014 9.91610272,20.5273014 C9.83044362,20.5273014 9.76814704,20.5423193 9.72921109,20.5723556 C9.69027514,20.6023919 9.67080745,20.6396586 9.67080745,20.6841569 C9.67080745,20.7319925 9.69555922,20.7748214 9.7450635,20.8126449 C9.79456778,20.8504683 9.9288948,20.9194396 10.1480486,21.0195606 C10.3583027,21.1141193 10.5043103,21.2156294 10.5860758,21.3240938 C10.6678413,21.4325583 10.7087235,21.5691101 10.7087235,21.7337536 Z M13.7206823,22.4746454 L12.941411,22.4746454 L12.7077964,21.4116993 C12.6966719,21.367201 12.6791509,21.2787621 12.6552332,21.1463799 C12.6313154,21.0139977 12.6137944,20.90331 12.6026699,20.8143135 C12.5937702,20.8866231 12.5793085,20.9764526 12.5592843,21.0838046 C12.5392601,21.1911566 12.5195143,21.2898855 12.5000464,21.3799944 C12.4805784,21.4701034 12.3996484,21.8349834 12.2572541,22.4746454 L11.4779828,22.4746454 L10.8739223,20.0350422 L11.5096876,20.0350422 L11.775007,21.2581811 C11.8350796,21.5285079 11.8762398,21.7437648 11.8984889,21.9039585 C11.9129508,21.790488 11.9388151,21.6364152 11.9760823,21.4417354 C12.0133496,21.2470557 12.0481133,21.085752 12.0803745,20.9578196 L12.2956336,20.0350422 L12.9063688,20.0350422 L13.1149532,20.9578196 C13.1505518,21.1057762 13.186706,21.2765356 13.2234171,21.4701029 C13.2601281,21.6636702 13.2846018,21.8082873 13.2968388,21.9039585 C13.3113007,21.7804759 13.3507923,21.5663314 13.4153147,21.2615185 L13.6856401,20.0350422 L14.3214054,20.0350422 L13.7206823,22.4746454 Z M15.9967554,22.4746454 L15.8766107,22.0174284 L15.08399,22.0174284 L14.960508,22.4746454 L14.236303,22.4746454 L15.0322611,20.0250301 L15.9116529,20.0250301 L16.7176231,22.4746454 L15.9967554,22.4746454 Z M15.7397794,21.4767776 L15.6346528,21.0762955 C15.6101788,20.9872991 15.5804211,20.8721616 15.5453787,20.7308798 C15.5103363,20.5895979 15.4872532,20.4883659 15.4761287,20.4271809 C15.4661166,20.4839161 15.4463708,20.577361 15.4168907,20.7075183 C15.3874106,20.8376756 15.3220548,21.0940928 15.2208214,21.4767776 L15.7397794,21.4767776 Z M17.8189487,22.4746454 L17.159822,22.4746454 L17.159822,20.5740243 L16.5641049,20.5740243 L16.5641049,20.0350422 L18.4129971,20.0350422 L18.4129971,20.5740243 L17.8189487,20.5740243 L17.8189487,22.4746454 Z M19.7796422,20.5406508 C19.6227859,20.5406508 19.5004176,20.6048941 19.4125336,20.7333828 C19.3246496,20.8618714 19.2807083,21.0390273 19.2807083,21.2648558 C19.2807083,21.7343122 19.4592547,21.9690368 19.816353,21.9690368 C19.9242612,21.9690368 20.0288305,21.9540189 20.130064,21.9239826 C20.2312974,21.8939463 20.3330856,21.857792 20.4354315,21.8155187 L20.4354315,22.3728562 C20.2318521,22.4629651 20.0015773,22.5080189 19.7446,22.5080189 C19.3763771,22.5080189 19.0940957,22.4012248 18.8977473,22.1876333 C18.7013989,21.9740418 18.6032261,21.6653399 18.6032261,21.2615185 C18.6032261,21.008991 18.6507829,20.7870595 18.7458978,20.5957171 C18.8410128,20.4043747 18.9778428,20.2572546 19.156392,20.1543525 C19.3349411,20.0514503 19.544914,20 19.7863169,20 C20.0499689,20 20.3019363,20.0572906 20.5422268,20.1718736 L20.340317,20.6908316 C20.2502081,20.6485582 20.1601006,20.6129602 20.0699917,20.5840363 C19.9798827,20.5551125 19.8831005,20.5406508 19.7796422,20.5406508 Z M23.0018541,22.4746454 L22.33939,22.4746454 L22.33939,21.480115 L21.5734681,21.480115 L21.5734681,22.4746454 L20.911004,22.4746454 L20.911004,20.0350422 L21.5734681,20.0350422 L21.5734681,20.9394642 L22.33939,20.9394642 L22.33939,20.0350422 L23.0018541,20.0350422 L23.0018541,22.4746454 Z M24.9775656,22.4746454 L23.5291555,22.4746454 L23.5291555,20.0350422 L24.9775656,20.0350422 L24.9775656,20.5640122 L24.1882822,20.5640122 L24.1882822,20.9478075 L24.919162,20.9478075 L24.919162,21.4767776 L24.1882822,21.4767776 L24.1882822,21.937332 L24.9775656,21.937332 L24.9775656,22.4746454 Z M27,21.7337536 C27,21.8850476 26.9616209,22.0193746 26.8848614,22.1367387 C26.808102,22.2541027 26.6974143,22.3453227 26.552795,22.4104014 C26.4081758,22.4754801 26.2385288,22.5080189 26.0438491,22.5080189 C25.8814305,22.5080189 25.7451568,22.4966164 25.6350236,22.4738111 C25.5248905,22.4510057 25.4103093,22.411236 25.2912765,22.3545008 L25.2912765,21.7671271 C25.416984,21.8316495 25.5476956,21.8819874 25.6834152,21.9181422 C25.8191348,21.954297 25.943728,21.9723742 26.0571985,21.9723742 C26.1550946,21.9723742 26.2268469,21.9554095 26.2724576,21.9214796 C26.3180683,21.8875497 26.3408733,21.8438864 26.3408733,21.7904886 C26.3408733,21.7571149 26.3316957,21.7279134 26.3133401,21.7028831 C26.2949846,21.6778528 26.265505,21.6525449 26.2249003,21.6269584 C26.1842957,21.6013719 26.076111,21.5490873 25.900343,21.4701029 C25.7412618,21.3977933 25.6219527,21.3277096 25.5424122,21.2598498 C25.4628716,21.19199 25.4039123,21.1141193 25.3655326,21.0262353 C25.3271529,20.9383513 25.3079633,20.8343382 25.3079633,20.714193 C25.3079633,20.489477 25.3897276,20.3142678 25.5532586,20.1885603 C25.7167895,20.0628528 25.9415022,20 26.2274034,20 C26.4799308,20 26.7374604,20.058403 27,20.1752109 L26.7980903,20.6841569 C26.5700369,20.579586 26.3731352,20.5273014 26.2073793,20.5273014 C26.1217202,20.5273014 26.0594236,20.5423193 26.0204876,20.5723556 C25.9815517,20.6023919 25.962084,20.6396586 25.962084,20.6841569 C25.962084,20.7319925 25.9868358,20.7748214 26.03634,20.8126449 C26.0858443,20.8504683 26.2201713,20.9194396 26.4393251,21.0195606 C26.6495792,21.1141193 26.7955869,21.2156294 26.8773524,21.3240938 C26.9591179,21.4325583 27,21.5691101 27,21.7337536 Z" id="SWATCHES" fill="#333333"></path>
            <path d="M10.0400704,26.4639367 L9.64962862,26.4639367 L9.64962862,24.8955238 C9.64962862,24.7083324 9.65405912,24.5599106 9.66292025,24.4502541 C9.63744449,24.4768375 9.60615408,24.5061896 9.56904808,24.5383112 C9.53194209,24.5704328 9.40761117,24.6723343 9.1960516,24.8440188 L9,24.5964621 L9.71442533,24.0348905 L10.0400704,24.0348905 L10.0400704,26.4639367 Z M12.3910281,24.5931392 C12.3910281,24.7471014 12.3461693,24.875309 12.2564504,24.9777658 C12.1667314,25.0802227 12.0404621,25.1491724 11.8776388,25.1846169 L11.8776388,25.1979085 C12.0725837,25.2222766 12.2187902,25.2829191 12.3162627,25.3798378 C12.4137352,25.4767564 12.4624707,25.6055178 12.4624707,25.7661259 C12.4624707,25.9998383 12.3799526,26.1801043 12.214914,26.3069292 C12.0498754,26.4337542 11.8150589,26.4971658 11.5104574,26.4971658 C11.2413005,26.4971658 11.0142373,26.4534146 10.8292611,26.3659109 L10.8292611,26.0186669 C10.9322718,26.0696184 11.0413729,26.1089391 11.1565676,26.1366302 C11.2717624,26.1643212 11.3825249,26.1781665 11.4888585,26.1781665 C11.6771576,26.1781665 11.817826,26.1432763 11.9108679,26.0734949 C12.0039098,26.0037135 12.05043,25.89572 12.05043,25.7495113 C12.05043,25.6199173 11.9989255,25.5246615 11.8959148,25.4637412 C11.7929041,25.4028209 11.6311908,25.3723612 11.4107701,25.3723612 L11.1997654,25.3723612 L11.1997654,25.0550235 L11.414093,25.0550235 C11.8017676,25.0550235 11.995602,24.9210008 11.995602,24.6529515 C11.995602,24.5488332 11.9618195,24.4685304 11.8942533,24.4120407 C11.8266872,24.3555509 11.7270009,24.3273065 11.5951916,24.3273065 C11.5032573,24.3273065 11.4146473,24.3403211 11.3293589,24.3663507 C11.2440705,24.3923802 11.1432766,24.4430541 11.0269742,24.5183737 L10.835907,24.2458952 C11.0585429,24.0819643 11.3171734,24 11.6118061,24 C11.8565949,24 12.0476602,24.0526122 12.1850078,24.1578382 C12.3223554,24.2630641 12.3910281,24.408163 12.3910281,24.5931392 Z M12.7847928,25.4288507 C12.7847928,24.4784941 13.1719078,24.0033229 13.9461493,24.0033229 C14.0679899,24.0033229 14.1709991,24.0127377 14.2551798,24.0315676 L14.2551798,24.3572127 C14.1709991,24.3328445 14.073528,24.3206607 13.9627639,24.3206607 C13.7024681,24.3206607 13.5069722,24.3904411 13.3762705,24.5300039 C13.2455688,24.6695668 13.1746808,24.893307 13.1636044,25.2012314 L13.1835418,25.2012314 C13.235601,25.1115125 13.3087042,25.042009 13.4028538,24.9927189 C13.4970033,24.9434289 13.6077658,24.9187842 13.7351446,24.9187842 C13.9555653,24.9187842 14.1272472,24.9863493 14.2501955,25.1214816 C14.3731437,25.2566139 14.4346169,25.4399259 14.4346169,25.671423 C14.4346169,25.9261806 14.363452,26.1274914 14.22112,26.2753616 C14.0787881,26.4232318 13.8846768,26.4971658 13.6387803,26.4971658 C13.4648805,26.4971658 13.3136897,26.4553529 13.1852033,26.371726 C13.0567168,26.288099 12.9578613,26.1662602 12.8886337,26.006206 C12.8194061,25.8461518 12.7847928,25.6537019 12.7847928,25.4288507 Z M13.6321345,26.1748436 C13.7661591,26.1748436 13.8694452,26.1316462 13.9419957,26.0452502 C14.0145462,25.9588541 14.050821,25.8353539 14.050821,25.6747459 C14.050821,25.535183 14.0167615,25.4255282 13.9486415,25.345778 C13.8805216,25.2660277 13.7783431,25.2261532 13.6421032,25.2261532 C13.5579224,25.2261532 13.4803887,25.2441522 13.4094996,25.2801505 C13.3386105,25.3161489 13.2826755,25.3654382 13.2416927,25.4280199 C13.20071,25.4906017 13.1802189,25.554567 13.1802189,25.6199179 C13.1802189,25.7760954 13.2225856,25.9076259 13.3073202,26.0145133 C13.3920548,26.1214007 13.5003251,26.1748436 13.6321345,26.1748436 Z M16.808835,24.3405981 C16.5806608,24.3405981 16.4012256,24.4214548 16.2705238,24.5831704 C16.1398221,24.7448861 16.0744722,24.9680726 16.0744722,25.2527365 C16.0744722,25.5506921 16.13733,25.7760938 16.2630473,25.9289484 C16.3887646,26.081803 16.5706921,26.1582291 16.808835,26.1582291 C16.9118457,26.1582291 17.011532,26.1479836 17.1078968,26.1274922 C17.2042616,26.1070008 17.3045017,26.0806947 17.40862,26.0485731 L17.40862,26.3891712 C17.2181056,26.4611679 17.0021187,26.4971658 16.7606529,26.4971658 C16.4050999,26.4971658 16.1320703,26.3894492 15.9415559,26.1740129 C15.7510415,25.9585766 15.6557858,25.6503799 15.6557858,25.2494136 C15.6557858,24.9968713 15.7020291,24.7759001 15.7945172,24.5864934 C15.8870053,24.3970866 16.020751,24.2519877 16.1957584,24.1511923 C16.3707658,24.0503969 16.5762303,24 16.8121579,24 C17.0602697,24 17.2895481,24.0520584 17.5,24.1561767 L17.3571149,24.4868061 C17.2751494,24.4480386 17.1884778,24.4139792 17.0970973,24.3846267 C17.0057169,24.3552742 16.9096304,24.3405981 16.808835,24.3405981 Z" id="136-C" fill="#666666"></path>
            <path d="M10,5 L18,5 L7,16.6511628 L7,8 C7,6 8,5 10,5 Z" id="glare" fill="url(#linearGradient-5)" opacity="0.5"></path>
        </g>
    </g>
</svg>