<?xml version="1.0" encoding="UTF-8"?>
<svg width="48px" height="48px" viewBox="0 0 48 48" version="1.1" xmlns="http://www.w3.org/2000/svg" xmlns:xlink="http://www.w3.org/1999/xlink">
    <!-- Generator: Sketch 41 (35326) - http://www.bohemiancoding.com/sketch -->
    <title>48</title>
    <desc>Created with Sketch.</desc>
    <defs>
        <linearGradient x1="50%" y1="0%" x2="50%" y2="100%" id="linearGradient-1">
            <stop stop-color="#000000" stop-opacity="0" offset="0%"></stop>
            <stop stop-color="#000000" offset="49.8447963%"></stop>
            <stop stop-color="#000000" stop-opacity="0" offset="100%"></stop>
        </linearGradient>
        <radialGradient cx="0%" cy="50%" fx="0%" fy="50%" r="63.6829723%" id="radialGradient-2">
            <stop stop-color="#000000" offset="0%"></stop>
            <stop stop-color="#000000" stop-opacity="0" offset="100%"></stop>
        </radialGradient>
        <linearGradient x1="50%" y1="0%" x2="50%" y2="85.0368565%" id="linearGradient-3">
            <stop stop-color="#FFFFFF" offset="0%"></stop>
            <stop stop-color="#F9F9F9" offset="100%"></stop>
        </linearGradient>
        <linearGradient x1="50%" y1="0%" x2="50%" y2="87.2130102%" id="linearGradient-4">
            <stop stop-color="#FFD787" offset="0%"></stop>
            <stop stop-color="#FFBF3F" offset="100%"></stop>
        </linearGradient>
        <linearGradient x1="50%" y1="2.37479907%" x2="50%" y2="98.5590721%" id="linearGradient-5">
            <stop stop-color="#FFFFFF" stop-opacity="0.4" offset="0%"></stop>
            <stop stop-color="#FFFFFF" stop-opacity="0" offset="100%"></stop>
        </linearGradient>
    </defs>
    <g id="Page-1" stroke="none" stroke-width="1" fill="none" fill-rule="evenodd">
        <g id="48">
            <rect id="shadow-center" fill-opacity="0.25" fill="url(#linearGradient-1)" x="11" y="40" width="26" height="7"></rect>
            <rect id="shadow-right" fill-opacity="0.25" fill="url(#radialGradient-2)" x="37" y="40" width="11" height="7"></rect>
            <polygon id="shadow-left" fill-opacity="0.25" fill="url(#radialGradient-2)" transform="translate(5.500000, 43.500000) rotate(-180.000000) translate(-5.500000, -43.500000) " points="1.77635684e-15 40 11 40 11 47 7.11930515e-15 47"></polygon>
            <path d="M10,33 L38,33 C40.5,33 41.5,34 41.5,36.5 L41.5,44.5 L6.5,44.5 L6.5,36.5 C6.5,34 7.5,33 10,33 Z" id="bottom-back-outline-copy" fill="#F9F9F9" transform="translate(24.000000, 38.750000) rotate(-180.000000) translate(-24.000000, -38.750000) "></path>
            <path d="M9.5,33 L38.5,33 C40.5,33 42,34.5 42,36.5 L42,45 L6,45 L6,36.5 C6,34.5 7.5,33 9.5,33 Z" id="bottom-outline" fill-opacity="0.2" fill="#000000" transform="translate(24.000000, 39.000000) rotate(-180.000000) translate(-24.000000, -39.000000) "></path>
            <path d="M10,33 L38,33 C40,33 41,34 41,36 L41,44 L7,44 L7,36 C7,34 8,33 10,33 Z" id="bottom-highlight" fill="url(#linearGradient-3)" transform="translate(24.000000, 38.500000) rotate(-180.000000) translate(-24.000000, -38.500000) "></path>
            <path d="M10.5,33 C12.5,33 35.5,33 37.5,33 C39.5,33 40,33.5 40,35.5 C40,37.5 40,43 40,43 L8,43 L8,35.5 C8,33.5 8.5,33 10.5,33 Z" id="bottom-fill" fill="#F9F9F9" transform="translate(24.000000, 38.000000) rotate(-180.000000) translate(-24.000000, -38.000000) "></path>
            <path d="M10,5.5 C12.5,5.5 35.5,5.5 38,5.5 C40.5,5.5 41.5,6.5 41.5,9 L41.5,33 L6.5,33 L6.5,9 C6.5,6.5 7.5,5.5 10,5.5 Z" id="top-back-outline" fill="#FFBF3F"></path>
            <path d="M9.5,5 C23.50108,5 36.5,5 38.5,5 C40.5,5 42,6.5 42,8.5 L42,33 L6,33 L6,8.5 C6,6.5 7.5,5 9.5,5 Z" id="top-outline" fill-opacity="0.2" fill="#000000"></path>
            <path d="M10,6 C24.00108,6 36,6 38,6 C40,6 41,7 41,9 L41,33 L7,33 L7,9 C7,7 8,6 10,6 Z" id="top-highlight" fill="url(#linearGradient-4)"></path>
            <path d="M10.5,7 L37.5,7 C39.5,7 40,7.5 40,9.5 L40,33 L8,33 L8,9.5 C8,7.5 8.5,7 10.5,7 Z" id="top-fill" fill="#FFBF3F"></path>
            <path d="M11.0439122,37.0738523 C11.0439122,37.2548246 10.9980045,37.4155016 10.9061876,37.5558882 C10.8143708,37.6962748 10.6819703,37.8053888 10.508982,37.8832335 C10.3359938,37.9610782 10.1330684,38 9.9001996,38 C9.70592052,38 9.54291483,37.9863607 9.41117764,37.9590818 C9.27944046,37.9318029 9.14238261,37.8842319 9,37.8163673 L9,37.1137725 C9.15036669,37.1909518 9.30671908,37.2511641 9.46906188,37.2944112 C9.63140467,37.3376582 9.78043844,37.3592814 9.91616766,37.3592814 C10.0332674,37.3592814 10.1190949,37.3389889 10.1736527,37.2984032 C10.2282105,37.2578175 10.255489,37.2055891 10.255489,37.1417166 C10.255489,37.1017962 10.2445111,37.0668664 10.2225549,37.0369261 C10.2005987,37.0069859 10.1653362,36.9767134 10.1167665,36.9461078 C10.0681967,36.9155022 9.93879014,36.8529612 9.72854291,36.758483 C9.53825587,36.6719889 9.39554272,36.5881574 9.3003992,36.506986 C9.20525568,36.4258146 9.13473077,36.3326685 9.08882236,36.2275449 C9.04291394,36.1224213 9.01996008,35.9980047 9.01996008,35.8542914 C9.01996008,35.5854943 9.11776349,35.3759156 9.31337325,35.2255489 C9.50898301,35.0751822 9.77777607,35 10.1197605,35 C10.4218245,35 10.729872,35.0698596 11.0439122,35.2095808 L10.8023952,35.8183633 C10.5296061,35.6932795 10.2940795,35.6307385 10.0958084,35.6307385 C9.99334613,35.6307385 9.91882924,35.6487024 9.87225549,35.6846307 C9.82568174,35.7205591 9.80239521,35.7651361 9.80239521,35.8183633 C9.80239521,35.8755825 9.83200237,35.9268128 9.89121756,35.9720559 C9.95043276,36.017299 10.1111098,36.0997998 10.3732535,36.2195609 C10.6247518,36.3326686 10.7994007,36.4540912 10.8972056,36.5838323 C10.9950105,36.7135735 11.0439122,36.8769119 11.0439122,37.0738523 Z M14.6467066,37.9600798 L13.7145709,37.9600798 L13.4351297,36.6886228 C13.421823,36.6353956 13.4008651,36.5296082 13.3722555,36.3712575 C13.3436459,36.2129067 13.322688,36.0805062 13.3093812,35.9740519 C13.2987358,36.060546 13.2814372,36.1679967 13.257485,36.2964072 C13.2335328,36.4248177 13.2099136,36.5429136 13.1866267,36.6506986 C13.1633399,36.7584836 13.0665345,37.1949396 12.8962076,37.9600798 L11.9640719,37.9600798 L11.241517,35.0419162 L12.001996,35.0419162 L12.3193613,36.50499 C12.3912179,36.8283449 12.4404523,37.0858274 12.4670659,37.2774451 C12.4843647,37.1417159 12.5153025,36.9574197 12.5598802,36.7245509 C12.604458,36.4916821 12.6460411,36.2987366 12.6846307,36.1457086 L12.9421158,35.0419162 L13.6726547,35.0419162 L13.9221557,36.1457086 C13.9647374,36.3226888 14.0079838,36.526945 14.0518962,36.758483 C14.0958086,36.9900211 14.1250831,37.1630067 14.1397206,37.2774451 C14.1570194,37.1297398 14.2042578,36.873588 14.2814371,36.508982 L14.6047904,35.0419162 L15.3652695,35.0419162 L14.6467066,37.9600798 Z M17.3692615,37.9600798 L17.2255489,37.4131737 L16.2774451,37.4131737 L16.1297405,37.9600798 L15.2634731,37.9600798 L16.2155689,35.0299401 L17.2674651,35.0299401 L18.2315369,37.9600798 L17.3692615,37.9600798 Z M17.0618762,36.7664671 L16.9361277,36.2874251 C16.9068528,36.1809709 16.8712577,36.0432477 16.8293413,35.8742515 C16.7874249,35.7052553 16.7598138,35.5841654 16.746507,35.510978 C16.7345309,35.5788427 16.7109117,35.690618 16.6756487,35.8463074 C16.6403857,36.0019968 16.5622095,36.3087136 16.4411178,36.7664671 L17.0618762,36.7664671 Z M19.5489022,37.9600798 L18.760479,37.9600798 L18.760479,35.6866267 L18.0479042,35.6866267 L18.0479042,35.0419162 L20.259481,35.0419162 L20.259481,35.6866267 L19.5489022,35.6866267 L19.5489022,37.9600798 Z M21.8942116,35.6467066 C21.7065859,35.6467066 21.5602134,35.7235521 21.4550898,35.8772455 C21.3499662,36.0309389 21.2974052,36.2428463 21.2974052,36.5129741 C21.2974052,37.0745204 21.5109759,37.3552894 21.9381238,37.3552894 C22.0671996,37.3552894 22.1922815,37.3373255 22.3133733,37.3013972 C22.434465,37.2654689 22.5562203,37.2222225 22.6786427,37.1716567 L22.6786427,37.8383234 C22.4351285,37.9461083 22.1596822,38 21.8522954,38 C21.4118408,38 21.0741861,37.8722568 20.8393214,37.6167665 C20.6044566,37.3612762 20.4870259,36.9920184 20.4870259,36.508982 C20.4870259,36.206918 20.5439116,35.9414516 20.6576846,35.7125749 C20.7714577,35.4836981 20.9351287,35.3077185 21.1487026,35.1846307 C21.3622765,35.061543 21.6134383,35 21.9021956,35 C22.2175664,35 22.5189606,35.0685289 22.8063872,35.2055888 L22.5648703,35.8263473 C22.4570853,35.7757815 22.3493019,35.7332004 22.241517,35.6986028 C22.133732,35.6640051 22.0179647,35.6467066 21.8942116,35.6467066 Z M25.748503,37.9600798 L24.9560878,37.9600798 L24.9560878,36.7704591 L24.0399202,36.7704591 L24.0399202,37.9600798 L23.247505,37.9600798 L23.247505,35.0419162 L24.0399202,35.0419162 L24.0399202,36.1237525 L24.9560878,36.1237525 L24.9560878,35.0419162 L25.748503,35.0419162 L25.748503,37.9600798 Z M28.1117764,37.9600798 L26.3792415,37.9600798 L26.3792415,35.0419162 L28.1117764,35.0419162 L28.1117764,35.6746507 L27.1676647,35.6746507 L27.1676647,36.1337325 L28.0419162,36.1337325 L28.0419162,36.7664671 L27.1676647,36.7664671 L27.1676647,37.3173653 L28.1117764,37.3173653 L28.1117764,37.9600798 Z M30.5309381,37.0738523 C30.5309381,37.2548246 30.4850304,37.4155016 30.3932136,37.5558882 C30.3013967,37.6962748 30.1689962,37.8053888 29.996008,37.8832335 C29.8230198,37.9610782 29.6200943,38 29.3872255,38 C29.1929465,38 29.0299408,37.9863607 28.8982036,37.9590818 C28.7664664,37.9318029 28.6294086,37.8842319 28.4870259,37.8163673 L28.4870259,37.1137725 C28.6373926,37.1909518 28.793745,37.2511641 28.9560878,37.2944112 C29.1184306,37.3376582 29.2674644,37.3592814 29.4031936,37.3592814 C29.5202933,37.3592814 29.6061208,37.3389889 29.6606786,37.2984032 C29.7152365,37.2578175 29.742515,37.2055891 29.742515,37.1417166 C29.742515,37.1017962 29.731537,37.0668664 29.7095808,37.0369261 C29.6876246,37.0069859 29.6523622,36.9767134 29.6037924,36.9461078 C29.5552226,36.9155022 29.4258161,36.8529612 29.2155689,36.758483 C29.0252818,36.6719889 28.8825687,36.5881574 28.7874251,36.506986 C28.6922816,36.4258146 28.6217567,36.3326685 28.5758483,36.2275449 C28.5299399,36.1224213 28.506986,35.9980047 28.506986,35.8542914 C28.506986,35.5854943 28.6047894,35.3759156 28.8003992,35.2255489 C28.996009,35.0751822 29.264802,35 29.6067864,35 C29.9088505,35 30.216898,35.0698596 30.5309381,35.2095808 L30.2894212,35.8183633 C30.016632,35.6932795 29.7811054,35.6307385 29.5828343,35.6307385 C29.4803721,35.6307385 29.4058552,35.6487024 29.3592814,35.6846307 C29.3127077,35.7205591 29.2894212,35.7651361 29.2894212,35.8183633 C29.2894212,35.8755825 29.3190283,35.9268128 29.3782435,35.9720559 C29.4374587,36.017299 29.5981357,36.0997998 29.8602794,36.2195609 C30.1117777,36.3326686 30.2864267,36.4540912 30.3842315,36.5838323 C30.4820364,36.7135735 30.5309381,36.8769119 30.5309381,37.0738523 Z" id="SWATCHES" fill="#333333"></path>
            <path d="M10.249501,41.9600798 L9.78043912,41.9600798 L9.78043912,40.0758483 C9.78043912,39.8509636 9.78576176,39.6726553 9.79640719,39.5409182 C9.76580158,39.5728545 9.72821047,39.6081169 9.68363273,39.6467066 C9.639055,39.6852963 9.48968856,39.8077169 9.23552894,40.0139721 L9,39.7165669 L9.85828343,39.0419162 L10.249501,39.0419162 L10.249501,41.9600798 Z M13.0738523,39.7125749 C13.0738523,39.8975392 13.0199606,40.0515629 12.9121756,40.1746507 C12.8043907,40.2977385 12.6526956,40.380572 12.4570858,40.4231537 L12.4570858,40.4391218 C12.6912853,40.4683967 12.8669322,40.5412502 12.9840319,40.6576846 C13.1011317,40.774119 13.1596806,40.9288081 13.1596806,41.1217565 C13.1596806,41.4025297 13.0605466,41.6190944 12.8622754,41.7714571 C12.6640043,41.9238198 12.3819047,42 12.0159681,42 C11.6926132,42 11.4198281,41.947439 11.1976048,41.8423154 L11.1976048,41.4251497 C11.3213579,41.4863609 11.4524278,41.5335993 11.5908184,41.5668663 C11.7292089,41.6001332 11.8622748,41.6167665 11.99002,41.6167665 C12.2162353,41.6167665 12.385229,41.5748507 12.497006,41.491018 C12.608783,41.4071852 12.6646707,41.277446 12.6646707,41.1017964 C12.6646707,40.946107 12.602795,40.8316704 12.4790419,40.758483 C12.3552888,40.6852957 12.1610126,40.6487026 11.8962076,40.6487026 L11.6427146,40.6487026 L11.6427146,40.2674651 L11.9001996,40.2674651 C12.3659371,40.2674651 12.5988024,40.1064554 12.5988024,39.7844311 C12.5988024,39.6593473 12.5582173,39.5628746 12.4770459,39.49501 C12.3958745,39.4271454 12.2761152,39.3932136 12.1177645,39.3932136 C12.0073181,39.3932136 11.9008654,39.4088488 11.7984032,39.4401198 C11.6959409,39.4713907 11.574851,39.5322683 11.4351297,39.6227545 L11.2055888,39.2954092 C11.4730552,39.0984687 11.783764,39 12.1377246,39 C12.4318045,39 12.6613432,39.0632063 12.8263473,39.1896208 C12.9913515,39.3160352 13.0738523,39.4903515 13.0738523,39.7125749 Z M13.5469062,40.7165669 C13.5469062,39.5748446 14.0119714,39.003992 14.9421158,39.003992 C15.0884904,39.003992 15.2122417,39.0153026 15.3133733,39.0379242 L15.3133733,39.4291417 C15.2122417,39.3998668 15.0951437,39.3852295 14.9620758,39.3852295 C14.6493664,39.3852295 14.4145051,39.469061 14.257485,39.6367265 C14.100465,39.8043921 14.0153028,40.0731851 14.001996,40.4431138 L14.0259481,40.4431138 C14.08849,40.3353288 14.1763135,40.25183 14.2894212,40.1926148 C14.4025288,40.1333996 14.5355947,40.1037924 14.6886228,40.1037924 C14.9534278,40.1037924 15.1596799,40.1849626 15.3073852,40.3473054 C15.4550906,40.5096482 15.5289421,40.7298722 15.5289421,41.007984 C15.5289421,41.3140401 15.4434473,41.5558873 15.2724551,41.7335329 C15.1014629,41.9111785 14.868265,42 14.5728543,42 C14.3639377,42 14.1823028,41.9497676 14.0279441,41.8493014 C13.8735854,41.7488352 13.7548241,41.6024627 13.6716567,41.4101796 C13.5884893,41.2178966 13.5469062,40.9866946 13.5469062,40.7165669 Z M14.5648703,41.6127745 C14.7258824,41.6127745 14.8499663,41.5608788 14.9371257,41.4570858 C15.0242852,41.3532929 15.0678643,41.2049245 15.0678643,41.011976 C15.0678643,40.8443105 15.0269465,40.7125753 14.9451098,40.6167665 C14.863273,40.5209576 14.7405198,40.4730539 14.5768463,40.4730539 C14.4757147,40.4730539 14.3825686,40.4946771 14.2974052,40.5379242 C14.2122418,40.5811712 14.1450435,40.6403855 14.0958084,40.7155689 C14.0465733,40.7907522 14.0219561,40.8675977 14.0219561,40.9461078 C14.0219561,41.1337335 14.0728538,41.2917492 14.1746507,41.4201597 C14.2764476,41.5485702 14.4065195,41.6127745 14.5648703,41.6127745 Z M18.3812375,39.4091816 C18.1071177,39.4091816 17.891551,39.5063197 17.7345309,39.7005988 C17.5775109,39.8948779 17.499002,40.1630056 17.499002,40.50499 C17.499002,40.8629426 17.5745169,41.1337316 17.7255489,41.3173653 C17.8765809,41.5009989 18.0951416,41.5928144 18.3812375,41.5928144 C18.5049906,41.5928144 18.6247499,41.5805058 18.740519,41.5558882 C18.856288,41.5312707 18.9767126,41.4996675 19.1017964,41.4610778 L19.1017964,41.8702595 C18.8729197,41.9567536 18.6134412,42 18.3233533,42 C17.8962054,42 17.5681981,41.8705934 17.3393214,41.6117764 C17.1104446,41.3529595 16.996008,40.9827037 16.996008,40.500998 C16.996008,40.1976033 17.051563,39.9321369 17.1626747,39.7045908 C17.2737863,39.4770448 17.4344634,39.3027285 17.6447106,39.1816367 C17.8549578,39.060545 18.101795,39 18.3852295,39 C18.6833016,39 18.9587479,39.062541 19.2115768,39.1876248 L19.0399202,39.5848303 C18.9414499,39.5382566 18.8373259,39.4973388 18.7275449,39.4620758 C18.6177639,39.4268129 18.5023293,39.4091816 18.3812375,39.4091816 Z" id="136-C" fill="#666666"></path>
            <path d="M10,6 L24,6 L7,34.6511628 L7,18.0465116 L7,9 C7,7 8,6 10,6 Z" id="glare" fill="url(#linearGradient-5)" opacity="0.5"></path>
        </g>
    </g>
</svg>