<?xml version="1.0" encoding="UTF-8"?>
<svg width="64px" height="64px" viewBox="0 0 64 64" version="1.1" xmlns="http://www.w3.org/2000/svg" xmlns:xlink="http://www.w3.org/1999/xlink">
    <!-- Generator: Sketch 41 (35326) - http://www.bohemiancoding.com/sketch -->
    <title>64</title>
    <desc>Created with Sketch.</desc>
    <defs>
        <linearGradient x1="50%" y1="0%" x2="50%" y2="100%" id="linearGradient-1">
            <stop stop-color="#000000" stop-opacity="0" offset="0%"></stop>
            <stop stop-color="#000000" offset="49.8447963%"></stop>
            <stop stop-color="#000000" stop-opacity="0" offset="100%"></stop>
        </linearGradient>
        <radialGradient cx="0%" cy="50%" fx="0%" fy="50%" r="63.6829723%" id="radialGradient-2">
            <stop stop-color="#000000" offset="0%"></stop>
            <stop stop-color="#000000" stop-opacity="0" offset="100%"></stop>
        </radialGradient>
        <linearGradient x1="50%" y1="0%" x2="50%" y2="85.0368565%" id="linearGradient-3">
            <stop stop-color="#FFFFFF" offset="0%"></stop>
            <stop stop-color="#F9F9F9" offset="100%"></stop>
        </linearGradient>
        <linearGradient x1="50%" y1="0%" x2="50%" y2="87.2130102%" id="linearGradient-4">
            <stop stop-color="#FFD787" offset="0%"></stop>
            <stop stop-color="#FFBF3F" offset="100%"></stop>
        </linearGradient>
        <linearGradient x1="50%" y1="2.37479907%" x2="50%" y2="98.5590721%" id="linearGradient-5">
            <stop stop-color="#FFFFFF" stop-opacity="0.4" offset="0%"></stop>
            <stop stop-color="#FFFFFF" stop-opacity="0" offset="100%"></stop>
        </linearGradient>
    </defs>
    <g id="Page-1" stroke="none" stroke-width="1" fill="none" fill-rule="evenodd">
        <g id="64">
            <rect id="shadow-center" fill-opacity="0.25" fill="url(#linearGradient-1)" x="13" y="55" width="38" height="7"></rect>
            <rect id="shadow-right" fill-opacity="0.25" fill="url(#radialGradient-2)" x="51" y="55" width="11" height="7"></rect>
            <rect id="shadow-left" fill-opacity="0.25" fill="url(#radialGradient-2)" transform="translate(7.500000, 58.500000) rotate(-180.000000) translate(-7.500000, -58.500000) " x="2" y="55" width="11" height="7"></rect>
            <path d="M12,45 C14.5,45 49.5,45 52,45 C54.5,45 55.5,46 55.5,48.5 C55.5,51 55.5,59.5 55.5,59.5 L8.5,59.5 C8.5,59.5 8.5,51 8.5,48.5 C8.5,46 9.5,45 12,45 Z" id="bottom-back-outline-copy" fill="#F9F9F9" transform="translate(32.000000, 52.250000) rotate(-180.000000) translate(-32.000000, -52.250000) "></path>
            <path d="M11.5,45 C25.50108,45 50.5,45 52.5,45 C54.5,45 56,46.5 56,48.5 C56,50.5 56,60 56,60 L8,60 L8,48.5 C8,46.5 9.5,45 11.5,45 Z" id="bottom-outline" fill-opacity="0.2" fill="#000000" transform="translate(32.000000, 52.500000) rotate(-180.000000) translate(-32.000000, -52.500000) "></path>
            <path d="M12,45 C26.00108,45 50,45 52,45 C54,45 55,46 55,48 C55,50 55,59 55,59 L9,59 C9,59 9,50 9,48 C9,46 10,45 12,45 Z" id="bottom-highlight" fill="url(#linearGradient-3)" transform="translate(32.000000, 52.000000) rotate(-180.000000) translate(-32.000000, -52.000000) "></path>
            <path d="M12.5,45 C14.5,45 49.5,45 51.5,45 C53.5,45 54,45.5 54,47.5 C54,49.5 54,58 54,58 L10,58 C10,58 10,49.5 10,47.5 C10,45.5 10.5,45 12.5,45 Z" id="bottom-fill" fill="#F9F9F9" transform="translate(32.000000, 51.500000) rotate(-180.000000) translate(-32.000000, -51.500000) "></path>
            <path d="M12,4.5 C14.5,4.5 49.5,4.5 52,4.5 C54.5,4.5 55.5,5.5 55.5,8 L55.5,45 L8.5,45 L8.5,8 C8.5,5.5 9.5,4.5 12,4.5 Z" id="top-back-outline" fill="#FFBF3F"></path>
            <path d="M11.5,4 C25.50108,4 50.5,4 52.5,4 C54.5,4 56,5.5 56,7.5 L56,45 L8,45 L8,7.5 C8,5.5 9.5,4 11.5,4 Z" id="top-outline" fill-opacity="0.2" fill="#000000"></path>
            <path d="M12,5 C26.00108,5 50,5 52,5 C54,5 55,6 55,8 L55,45 L9,45 L9,8 C9,6 10,5 12,5 Z" id="top-highlight" fill="url(#linearGradient-4)"></path>
            <path d="M12.5,6 C14.5,6 49.5,6 51.5,6 C53.5,6 54,6.5 54,8.5 L54,45 L10,45 L10,8.5 C10,6.5 10.5,6 12.5,6 Z" id="top-fill" fill="#FFBF3F"></path>
            <path d="M13.7636719,49.6992188 C13.7636719,49.9648451 13.6962897,50.2006826 13.5615234,50.4067383 C13.4267571,50.612794 13.2324231,50.7729486 12.9785156,50.887207 C12.7246081,51.0014654 12.4267595,51.0585938 12.0849609,51.0585938 C11.7998033,51.0585938 11.5605478,51.0385744 11.3671875,50.9985352 C11.1738272,50.9584959 10.9726573,50.8886724 10.7636719,50.7890625 L10.7636719,49.7578125 C10.9843761,49.8710943 11.213866,49.9594723 11.4521484,50.0229492 C11.6904309,50.0864261 11.9091787,50.1181641 12.1083984,50.1181641 C12.2802743,50.1181641 12.4062496,50.0883792 12.4863281,50.0288086 C12.5664067,49.969238 12.6064453,49.8925786 12.6064453,49.7988281 C12.6064453,49.7402341 12.5903322,49.6889651 12.5581055,49.6450195 C12.5258787,49.601074 12.4741215,49.5566408 12.402832,49.5117188 C12.3315426,49.4667967 12.1416031,49.3750007 11.8330078,49.2363281 C11.5537095,49.1093744 11.344239,48.9863287 11.2045898,48.8671875 C11.0649407,48.7480463 10.9614261,48.6113289 10.894043,48.4570312 C10.8266598,48.3027336 10.7929688,48.1201182 10.7929688,47.9091797 C10.7929688,47.5146465 10.936522,47.2070324 11.2236328,46.9863281 C11.5107436,46.7656239 11.9052709,46.6552734 12.4072266,46.6552734 C12.8505882,46.6552734 13.3027321,46.7578115 13.7636719,46.9628906 L13.4091797,47.8564453 C13.0087871,47.6728506 12.6630874,47.5810547 12.3720703,47.5810547 C12.2216789,47.5810547 12.112305,47.6074216 12.0439453,47.6601562 C11.9755856,47.7128909 11.9414062,47.7783199 11.9414062,47.8564453 C11.9414062,47.9404301 11.9848628,48.0156247 12.0717773,48.0820312 C12.1586918,48.1484378 12.3945293,48.2695304 12.7792969,48.4453125 C13.1484393,48.611329 13.4047844,48.7895498 13.5483398,48.9799805 C13.6918952,49.1704111 13.7636719,49.4101548 13.7636719,49.6992188 Z M19.0517578,51 L17.6835938,51 L17.2734375,49.1337891 C17.2539062,49.0556637 17.2231447,48.9003918 17.1811523,48.6679688 C17.1391599,48.4355457 17.1083985,48.2412117 17.0888672,48.0849609 C17.0732421,48.2119147 17.0478517,48.369628 17.0126953,48.5581055 C16.9775389,48.746583 16.9428713,48.9199211 16.9086914,49.078125 C16.8745115,49.2363289 16.7324231,49.8769475 16.4824219,51 L15.1142578,51 L14.0537109,46.7167969 L15.1699219,46.7167969 L15.6357422,48.8642578 C15.7412115,49.3388696 15.8134764,49.7167955 15.8525391,49.9980469 C15.8779298,49.7988271 15.9233395,49.528322 15.9887695,49.1865234 C16.0541995,48.8447249 16.1152341,48.5615246 16.171875,48.3369141 L16.5498047,46.7167969 L17.6220703,46.7167969 L17.9882812,48.3369141 C18.0507816,48.596681 18.1142575,48.8964827 18.1787109,49.2363281 C18.2431644,49.5761736 18.2861327,49.8300773 18.3076172,49.9980469 C18.3330079,49.7812489 18.4023432,49.4052761 18.515625,48.8701172 L18.9902344,46.7167969 L20.1064453,46.7167969 L19.0517578,51 Z M23.0478516,51 L22.8369141,50.1972656 L21.4453125,50.1972656 L21.2285156,51 L19.9570312,51 L21.3544922,46.6992188 L22.8984375,46.6992188 L24.3134766,51 L23.0478516,51 Z M22.5966797,49.2480469 L22.4121094,48.5449219 C22.3691404,48.3886711 22.3168948,48.1865247 22.2553711,47.9384766 C22.1938473,47.6904284 22.1533204,47.5126958 22.1337891,47.4052734 C22.1162108,47.5048833 22.0815432,47.6689442 22.0297852,47.8974609 C21.9780271,48.1259777 21.8632821,48.5761685 21.6855469,49.2480469 L22.5966797,49.2480469 Z M26.2470703,51 L25.0898438,51 L25.0898438,47.6630859 L24.0439453,47.6630859 L24.0439453,46.7167969 L27.2900391,46.7167969 L27.2900391,47.6630859 L26.2470703,47.6630859 L26.2470703,51 Z M29.6894531,47.6044922 C29.4140611,47.6044922 29.1992195,47.717284 29.0449219,47.9428711 C28.8906242,48.1684582 28.8134766,48.4794902 28.8134766,48.8759766 C28.8134766,49.7001994 29.12695,50.1123047 29.7539062,50.1123047 C29.9433603,50.1123047 30.1269522,50.0859378 30.3046875,50.0332031 C30.4824228,49.9804685 30.6611319,49.9169926 30.8408203,49.8427734 L30.8408203,50.8212891 C30.4833967,50.979493 30.0791038,51.0585938 29.6279297,51.0585938 C28.9814421,51.0585938 28.4858416,50.8710956 28.1411133,50.4960938 C27.796385,50.1210919 27.6240234,49.5791051 27.6240234,48.8701172 C27.6240234,48.4267556 27.7075187,48.0371111 27.8745117,47.7011719 C28.0415047,47.3652327 28.2817367,47.1069345 28.5952148,46.9262695 C28.908693,46.7456046 29.2773416,46.6552734 29.7011719,46.6552734 C30.1640648,46.6552734 30.6064432,46.7558584 31.0283203,46.9570312 L30.6738281,47.8681641 C30.5156242,47.7939449 30.3574227,47.7314456 30.1992188,47.6806641 C30.0410148,47.6298826 29.8710947,47.6044922 29.6894531,47.6044922 Z M35.3466797,51 L34.1835938,51 L34.1835938,49.2539062 L32.8388672,49.2539062 L32.8388672,51 L31.6757812,51 L31.6757812,46.7167969 L32.8388672,46.7167969 L32.8388672,48.3046875 L34.1835938,48.3046875 L34.1835938,46.7167969 L35.3466797,46.7167969 L35.3466797,51 Z M38.8154297,51 L36.2724609,51 L36.2724609,46.7167969 L38.8154297,46.7167969 L38.8154297,47.6455078 L37.4296875,47.6455078 L37.4296875,48.3193359 L38.7128906,48.3193359 L38.7128906,49.2480469 L37.4296875,49.2480469 L37.4296875,50.0566406 L38.8154297,50.0566406 L38.8154297,51 Z M42.3662109,49.6992188 C42.3662109,49.9648451 42.2988288,50.2006826 42.1640625,50.4067383 C42.0292962,50.612794 41.8349622,50.7729486 41.5810547,50.887207 C41.3271472,51.0014654 41.0292986,51.0585938 40.6875,51.0585938 C40.4023423,51.0585938 40.1630869,51.0385744 39.9697266,50.9985352 C39.7763662,50.9584959 39.5751964,50.8886724 39.3662109,50.7890625 L39.3662109,49.7578125 C39.5869152,49.8710943 39.8164051,49.9594723 40.0546875,50.0229492 C40.2929699,50.0864261 40.5117178,50.1181641 40.7109375,50.1181641 C40.8828134,50.1181641 41.0087887,50.0883792 41.0888672,50.0288086 C41.1689457,49.969238 41.2089844,49.8925786 41.2089844,49.7988281 C41.2089844,49.7402341 41.1928713,49.6889651 41.1606445,49.6450195 C41.1284178,49.601074 41.0766605,49.5566408 41.0053711,49.5117188 C40.9340817,49.4667967 40.7441422,49.3750007 40.4355469,49.2363281 C40.1562486,49.1093744 39.946778,48.9863287 39.8071289,48.8671875 C39.6674798,48.7480463 39.5639652,48.6113289 39.496582,48.4570312 C39.4291989,48.3027336 39.3955078,48.1201182 39.3955078,47.9091797 C39.3955078,47.5146465 39.5390611,47.2070324 39.8261719,46.9863281 C40.1132827,46.7656239 40.50781,46.6552734 41.0097656,46.6552734 C41.4531272,46.6552734 41.9052711,46.7578115 42.3662109,46.9628906 L42.0117188,47.8564453 C41.6113261,47.6728506 41.2656265,47.5810547 40.9746094,47.5810547 C40.824218,47.5810547 40.7148441,47.6074216 40.6464844,47.6601562 C40.5781247,47.7128909 40.5439453,47.7783199 40.5439453,47.8564453 C40.5439453,47.9404301 40.5874019,48.0156247 40.6743164,48.0820312 C40.7612309,48.1484378 40.9970684,48.2695304 41.3818359,48.4453125 C41.7509784,48.611329 42.0073235,48.7895498 42.1508789,48.9799805 C42.2944343,49.1704111 42.3662109,49.4101548 42.3662109,49.6992188 Z" id="SWATCHES" fill="#333333"></path>
            <path d="M12.7851562,57 L12.0966797,57 L12.0966797,54.234375 C12.0966797,53.9042952 12.1044921,53.6425791 12.1201172,53.4492188 C12.0751951,53.496094 12.0200199,53.5478513 11.9545898,53.6044922 C11.8891598,53.6611331 11.6699237,53.8408188 11.296875,54.1435547 L10.9511719,53.7070312 L12.2109375,52.7167969 L12.7851562,52.7167969 L12.7851562,57 Z M16.9306641,53.7011719 C16.9306641,53.9726576 16.8515633,54.1987296 16.6933594,54.3793945 C16.5351555,54.5600595 16.3125014,54.6816403 16.0253906,54.7441406 L16.0253906,54.7675781 C16.3691423,54.8105471 16.6269523,54.9174796 16.7988281,55.0883789 C16.970704,55.2592782 17.0566406,55.4863267 17.0566406,55.7695312 C17.0566406,56.1816427 16.9111343,56.4995106 16.6201172,56.7231445 C16.3291001,56.9467785 15.9150417,57.0585938 15.3779297,57.0585938 C14.9033179,57.0585938 14.5029313,56.9814461 14.1767578,56.8271484 L14.1767578,56.2148438 C14.3583993,56.3046879 14.5507802,56.3740232 14.7539062,56.4228516 C14.9570323,56.4716799 15.1523428,56.4960938 15.3398438,56.4960938 C15.6718767,56.4960938 15.9199211,56.4345709 16.0839844,56.3115234 C16.2480477,56.1884759 16.3300781,55.9980482 16.3300781,55.7402344 C16.3300781,55.5117176 16.2392587,55.3437505 16.0576172,55.2363281 C15.8759757,55.1289057 15.5908223,55.0751953 15.2021484,55.0751953 L14.8300781,55.0751953 L14.8300781,54.515625 L15.2080078,54.515625 C15.891605,54.515625 16.2333984,54.2792992 16.2333984,53.8066406 C16.2333984,53.623046 16.1738287,53.4814458 16.0546875,53.3818359 C15.9355463,53.2822261 15.7597668,53.2324219 15.5273438,53.2324219 C15.3652336,53.2324219 15.2089851,53.2553709 15.0585938,53.3012695 C14.9082024,53.3471682 14.7304698,53.4365228 14.5253906,53.5693359 L14.1884766,53.0888672 C14.5810567,52.7998032 15.0371068,52.6552734 15.5566406,52.6552734 C15.9882834,52.6552734 16.3251941,52.7480459 16.5673828,52.9335938 C16.8095715,53.1191416 16.9306641,53.3749984 16.9306641,53.7011719 Z M17.625,55.1748047 C17.625,53.4990151 18.3076104,52.6611328 19.6728516,52.6611328 C19.8876964,52.6611328 20.0693352,52.6777342 20.2177734,52.7109375 L20.2177734,53.2851562 C20.0693352,53.2421873 19.8974619,53.2207031 19.7021484,53.2207031 C19.2431618,53.2207031 18.8984387,53.3437488 18.6679688,53.5898438 C18.4374988,53.8359387 18.3125001,54.230466 18.2929688,54.7734375 L18.328125,54.7734375 C18.4199223,54.6152336 18.5488273,54.4926762 18.7148438,54.4057617 C18.8808602,54.3188472 19.0761708,54.2753906 19.3007812,54.2753906 C19.6894551,54.2753906 19.9921864,54.3945301 20.2089844,54.6328125 C20.4257823,54.8710949 20.5341797,55.1943339 20.5341797,55.6025391 C20.5341797,56.0517601 20.4086927,56.406737 20.1577148,56.6674805 C19.906737,56.928224 19.5644553,57.0585938 19.1308594,57.0585938 C18.8242172,57.0585938 18.5576183,56.984864 18.3310547,56.8374023 C18.1044911,56.6899407 17.9301764,56.4750991 17.8081055,56.1928711 C17.6860345,55.9106431 17.625,55.571291 17.625,55.1748047 Z M19.1191406,56.4902344 C19.3554699,56.4902344 19.537597,56.4140633 19.6655273,56.2617188 C19.7934577,56.1093742 19.8574219,55.891603 19.8574219,55.6083984 C19.8574219,55.3623035 19.7973639,55.168946 19.6772461,55.0283203 C19.5571283,54.8876946 19.3769543,54.8173828 19.1367188,54.8173828 C18.9882805,54.8173828 18.8515631,54.8491208 18.7265625,54.9125977 C18.6015619,54.9760745 18.50293,55.0629877 18.4306641,55.1733398 C18.3583981,55.283692 18.3222656,55.3964838 18.3222656,55.5117188 C18.3222656,55.7871108 18.3969719,56.019042 18.5463867,56.2075195 C18.6958015,56.395997 18.8867176,56.4902344 19.1191406,56.4902344 Z M24.7207031,53.2558594 C24.3183574,53.2558594 24.0019543,53.3984361 23.7714844,53.6835938 C23.5410145,53.9687514 23.4257812,54.3623022 23.4257812,54.8642578 C23.4257812,55.3896511 23.53662,55.787108 23.7583008,56.0566406 C23.9799816,56.3261732 24.3007792,56.4609375 24.7207031,56.4609375 C24.9023447,56.4609375 25.0781242,56.4428713 25.2480469,56.4067383 C25.4179696,56.3706053 25.5947256,56.324219 25.7783203,56.2675781 L25.7783203,56.8681641 C25.4423811,56.9951178 25.0615256,57.0585938 24.6357422,57.0585938 C24.0087859,57.0585938 23.5273454,56.8686542 23.1914062,56.4887695 C22.8554671,56.1088848 22.6875,55.5654332 22.6875,54.8583984 C22.6875,54.4130837 22.7690422,54.0234392 22.9321289,53.6894531 C23.0952157,53.3554671 23.3310531,53.0996103 23.6396484,52.921875 C23.9482437,52.7441397 24.3105448,52.6552734 24.7265625,52.6552734 C25.1640647,52.6552734 25.5683575,52.7470694 25.9394531,52.9306641 L25.6875,53.5136719 C25.542968,53.4453122 25.3901375,53.3852542 25.2290039,53.3334961 C25.0678703,53.281738 24.8984384,53.2558594 24.7207031,53.2558594 Z" id="136-C" fill="#666666"></path>
            <path d="M11,5 L29.5,5 L8,42.5 L8,21.5 L8,8 C8,6 9,5 11,5 Z" id="glare" fill="url(#linearGradient-5)" opacity="0.5"></path>
        </g>
    </g>
</svg>